<?xml version="1.0" encoding="utf-8"?>
<!-- Generator: Adobe Illustrator 26.3.1, SVG Export Plug-In . SVG Version: 6.00 Build 0)  -->
<svg version="1.1" id="Layer_1" xmlns="http://www.w3.org/2000/svg" xmlns:xlink="http://www.w3.org/1999/xlink" x="0px" y="0px"
	 viewBox="0 0 580.8 172.5" style="enable-background:new 0 0 580.8 172.5;" xml:space="preserve">
<style type="text/css">
	.st0{fill:#F2F2F2;}
	.st1{fill:#F1F2F2;}
	.st2{fill:#F77F12;}
	.st3{fill:#5C0605;}
	.st4{fill:#FEFEFE;}
</style>
<rect x="0.5" class="st0" width="580.3" height="172.5"/>
<rect class="st1" width="580.8" height="172.5"/>
<rect class="st1" width="576.6" height="169.6"/>
<g id="Layer_2_00000183213945344777818420000010227466260075311532_">
	<polygon class="st2" points="233.8,131.3 239.5,142.8 252.3,144.7 243.1,153.7 245.2,166.4 233.8,160.4 222.4,166.4 224.6,153.7 
		215.4,144.7 228.1,142.8 	"/>
	<polygon class="st2" points="290.4,131.5 296.1,143 308.8,144.9 299.6,153.9 301.8,166.6 290.4,160.6 279,166.6 281.1,153.9 
		271.9,144.9 284.7,143 	"/>
	<polygon class="st2" points="347,131.5 352.7,143 365.4,144.9 356.2,153.9 358.4,166.6 347,160.6 335.6,166.6 337.7,153.9 
		328.5,144.9 341.3,143 	"/>
</g>
<g id="Layer_1-2">
	<path class="st3" d="M212.2,124.2c-2.2-2.4-5-3-8.2-3c-9,0.1-17.9-0.1-26.9,0.1c-3,0.1-4.4-0.6-3.9-3.8c0.1-1.6,0.1-3.3,0-4.9
		c0-1-0.1-2.3,1.1-2.3c3.9,0.1,3.1-2.6,3.1-4.8c0-8,0-15.9-0.1-23.9c0-1.1,0.5-2.5-1.1-3.2c-1.1-0.5-3.1,0.2-3.1-1.9
		c-0.1-2.9-0.1-5.7,0.2-8.6c0.2-1.5,2.1-1,3.2-1c7.6,0,15.2-0.3,22.8,0.1c4.3,0.2,7.5-0.7,9.8-4.4c0.8-1,1.6-1.9,2.6-2.7
		c1.4,5.9,2.7,11.2,4,16.5c0.9,3.7,1.7,7.5,2.7,11.2c0.7,2.3,0,3-2.3,2.8c-1.2-0.1-2.5,0.1-3.7,0c-2-0.2-2.7,0.6-2.4,2.6
		c0.3,1.8,0.6,2.1,2.7,1.6c2.7-0.7,5.7-0.3,8.6-0.2c2.6,0,1.5,1.7,1.1,2.8c-2.9,9-5.8,18-8.7,27L212.2,124.2z"/>
	<path class="st3" d="M261.1,124.2c-2-2.3-4.6-3.1-7.7-3c-7.9,0.1-15.7-0.1-23.6,0.2c-3.2,0.1-4.2-0.9-3.8-3.9
		c0.1-1.6,0.1-3.3,0.1-4.9c0-0.8-0.1-2.1,0.8-2.1c5-0.1,3.3-3.8,3.3-6.2c0.1-7.4,0-14.8,0-22.2c0-1.8,0.3-3.7-2.5-3.8
		c-1.5,0-1.6-1-1.8-2.2c-1-8.6-0.7-9,7.8-9c5.1,0,10.2,0.1,15.3,0c2.6-0.1,3.5,0.8,3.3,3.3c-0.2,1.8,0,3.6,0,5.3
		c0,0.9,0.2,2.3-1,2.4c-3.9,0.2-2.9,2.9-2.9,5.1c-0.1,7.3,0.1,14.5-0.2,21.8c-0.1,3.3,1.2,3.5,3.6,2.3c3.9-1.8,5.7-5.4,7.7-8.8
		c0.8-1.3,0.9-3.5,2.9-3.7c3.2-0.3,6.3-0.2,9.5,0.2c1.5,0.2,0.4,1.8,0.1,2.7c-3,8.2-5.9,16.5-8.9,24.7c-0.2,0.7-0.3,1.3-0.5,2
		L261.1,124.2z"/>
	<path class="st2" d="M473.2,46c14.3,2.7,28.6,5.1,43.3,5.1c11.2,0.2,22.4-2.2,32.6-7c4.7-2.2,8.9-5.6,9.8-11.7
		c0.5-3.5-0.9-5.8-3.5-6.9c-4-1.7-8.4-2.7-12.8-0.9c-2.1,0.8-4.2,1.5-4.7,4.1c-0.4,1.7,0.4,3.4,1.9,4.3c2.2,1.2,4.9,1.1,7.1-0.2
		c0.7-0.5,1.2-1,1.8-1.7c0.7-0.6,1.4-1.5,2.5-0.7c0.9,0.7,1.2,2,0.6,2.9c-1,2.1-2.9,3.7-5.2,4.4c-3.7,1.2-9.2-0.4-11.6-3.4
		c-2.2-2.7-2.7-5.9-1-8.8c2.5-4.3,7.2-5.3,11.7-5.8c4.3-0.4,8.6,0.6,12.3,2.6c9.6,5.1,6.7,14.9,1.1,20.1
		c-7.2,6.6-16.2,9.4-25.5,11.3c-15,3.1-29.9,1.7-44.9-0.7c-14.3-2.3-28.5-5.6-42.3-9.9c-8.1-2.6-16.1-5.7-24-8.8
		c-2.4-0.9-3.3-0.5-3.6,1.9c-1,6.4-4.8,10.9-10.4,13.9c-6.5,3.5-13,6.8-19.5,10.4c-2.9,1.6-5,4.7-9,4.5c-2.6-0.1-5.1-0.7-5.8-2.9
		c-0.7-2.2,1.7-3.5,3.5-4.5c2-1.1,5.6-1.4,5.4-3.6s-4-2.1-6.1-2.9c-4.5-1.7-8.2-4.4-9-9.2c-0.9-5.1,1.9-8.8,6.3-11.4
		c7.2-4.4,16.2-4.1,23.1,0.5c2.5,1.7,3.7,4.7,3,7.6c-0.5,2.7-2.7,4.7-5.4,5c-2.4,0.5-4.9,0.6-7.3,0.3c-2.9-0.5-5.1-2-5.5-4.7
		c-0.4-3,2.1-4.5,4.7-5.3c0.8-0.3,1.6-0.4,2.1-1.1c-4.4-2.7-12.4-0.4-14.6,4.1c-1.6,3.3-0.4,5.8,2.2,7.9c9,7.2,25,7.5,33.4-2.8
		c4.8-6,2.8-11.3-4.5-13.3c-16.6-4.6-33.3-4.5-50-2c-6.7,0.9-13.1,3.2-18.7,7c2.5,0.4,5,0.3,7.4-0.4c4.1-0.9,9,0.8,10.2,3.5
		c1.4,2.6,1,5.9-1.1,8c-2.5,2.5-5.5,3.7-8.9,1.5c-3.9-2.8-8.8-3.8-13.5-3c-8.8,1.5-15.6,5.4-18.9,14.2c-0.9,2.5-2.1,1-3,0.2
		c-5.3-4.5-10.6-9-15.7-13.8c-2.6-2.4-4.2-3.2-7.2-0.2c-4.8,4.9-10.3,9-15.5,13.6c-2.1,1.8-2.9,1.6-4-1.1c-3-7.6-9.4-11-17-12.6
		c-5-1-9.8-1-14.3,2.5c-2.8,2.2-6.2,1.6-8.8-0.5c-2.4-1.8-3.3-5-2.1-7.8c1.3-3.3,4-4.8,7.4-4.9c3-0.1,5.9,1.2,8.9,0.7
		c0.2-1.4-0.7-1.5-1.6-1.9c-22.4-9.4-45.2-8.4-68.1-2.4c-3.8,1-5.2,4.1-3.8,8.3c2.7,7.8,9.2,10.9,16.6,12c6.8,1.2,13.9-0.7,19.2-5.2
		c3.4-2.9,2.7-7.4-0.4-10.2c-2.9-2.6-8.4-3.4-12.5-2.1c0.7,1.7,2.4,1.6,3.6,2.2c1.8,0.9,3.2,2.3,3.4,4.4c0,2-1.3,3.8-3.2,4.3
		c-4,1.2-8.1,2.1-12-0.7c-3.7-2.6-4.3-6.4-1.4-9.8c6.4-7.5,23.8-6.4,29.3,2c3.8,5.8,1.8,12.5-5,15.5c-2.4,1-4.8,1.9-7.3,2.7
		c-2.2,0.7-2,1.6-0.3,2.6s3.4,1.8,5.1,2.6c2,0.9,3.2,2.3,2.7,4.5c-0.6,2.4-2.7,2.4-4.6,2.5c-3.7,0.3-6.2-2-9.1-3.7
		c-6.7-4-13.6-7.6-20.5-11.1c-5.3-2.6-9-7.5-10-13.3c-0.6-2.8-1.7-3.6-4.5-2.4c-16.3,7.1-33.3,11.9-50.7,15.7
		c-9.3,2.1-18.7,3.7-28.2,4.7c-16,1.6-31.9,0.5-46.9-5.7c-5.7-2.4-10.9-5.8-13.8-11.7c-3.7-7.4-0.8-12.8,6.3-15.9
		c5.5-2.5,11.8-2.5,17.4-0.1c3.5,1.5,6,4.1,6,8.1c0,3.8-3.2,7-7.5,8.1c-4,1.1-8.5-0.3-10.5-3c-1-1.3-1.5-3-0.4-4.1
		c1.3-1.3,2.4,0.4,3.4,1.2c1.2,0.9,2.3,1.9,3.9,2.1c2.7,0.2,4.9-0.5,6-3.2s-1-4-2.8-5.1c-4-2.6-12.2-2.2-15.7,0.6s-3.4,9,0.7,13.2
		c3.7,3.5,8.1,6.1,13,7.5c13.8,4.5,28,5.1,42.3,3.3c9-1,17.9-2.4,26.7-4.3c0.8-0.2,1.6-0.5,2.4-0.9c-2.4,0-4.9-0.1-7.3-0.5
		c-1.7-0.4-3.5-0.7-5.2-1.2c-2.4-0.5-4.1-2.6-4.2-5c-0.1-2,4.5-4.6,6.8-4.2c1.7,0.3,3.3,0.9,4.2,2.3c3.3,5.3,8.5,5.1,13.7,5
		c10.2-0.3,19.5-3.5,28.8-7.4c2-1,4-1.8,6.1-2.5c8.3-1.9,13.9-8.1,20.7-12.5c11.3-7.2,24.1-9,37.2-8.7c4.2,0.1,8.3,1,11.6-3.5
		c2.2-3,6.8-3.1,10.5-1.6c2.5,1.1,4.6,3.2,3.9,6.1c-0.7,2.6,0.8,3.1,2.5,3.7C251,20,262,28.7,269.5,41.4c1.6,2.7,3.2,2.9,5.5,1.5
		c2.5-1.6,5.1-3.2,7.5-4.8c2.3-1.5,1.4-2.9-0.3-4.2c-3.5-2.6-7.3-4.9-11.3-6.7c-1.3-0.6-2.9-1-2.6-2.7c0.8-4.3-0.6-8.3-1.8-13.1
		c5.9,2.4,11.3,6,15.8,10.5c2,1.9,3.8,4,5.3,6.3c1.5,2.4,2.8,2.1,4.1,0.1c3.8-5.8,9.1-10,14.8-13.9c1.7-1.2,3.8-2,5.9-2.2
		c-1.3,4-1.9,8.2-1.6,12.4c0.1,1.7-1.6,2-2.8,2.5c-3.7,1.8-7.3,3.9-10.6,6.3c-2.1,1.4-2.8,3-0.1,4.6c0.3,0.2,0.7,0.5,1,0.7
		c8.8,7,8.6,6.7,15-2.2c7.1-10,17-17.5,28.6-21.6c1.4-0.5,3.5-0.4,3.1-2.9c-0.6-3.5,1.1-5.7,4.3-7c3.7-1.5,7.7-1.4,10.1,1.6
		c2.9,3.7,6.3,3.6,10.3,3.4c13.4-0.6,26.5,1.2,38.4,8.2c0.8,0.4,1.6,0.9,2.4,1.5c14.8,13.1,33,17.9,51.8,21.2
		c5.4,0.9,11.5,1.1,15.3-5.1c1.9-3.1,6.8-2.9,9.4-0.2c1.5,1.6,1.5,4.1-0.1,5.7c-0.4,0.3-0.8,0.6-1.2,0.8c-2.2,0.9-4.5,2.1-7,2
		c-1.7,0.8-3.6-0.4-5.2,0.8c-0.1,0,0,0.2,0,0.3C473,45.8,473.1,45.9,473.2,46z"/>
	<path class="st3" d="M26.8,77.4c0-3.3-0.9-6.8,0.6-10c7.8-0.9,15.7-0.2,23.5-0.4c1.2,0,2.3,0.1,2.3,1.7v7.8c0,0.5-0.4,1.4-0.6,1.4
		c-5.3,0.4-3.4,4.3-3.5,7.1c-0.2,7.3-0.1,14.5-0.2,21.8c0,1.9-0.2,3.6,2.6,3.5c1.5-0.1,1.5,1.2,1.6,2.3c0.9,8.7,0.9,8.8-8,8.7
		c-5.9-0.1-11.8,0.4-17.7-0.3c-1.5-3.4-0.8-6.9-0.5-10.4c4.6-4.4,2.3-9.9,2.3-15c0-1.3-1.4-1.5-2.6-1.5c-1.1-0.2-2.2,0.4-2.7,1.4
		c-1.4,2.9,0.1,12.4,2.4,15c0.2,3.5,1,7-0.5,10.4c-8.5,0.6-17.1,0.6-25.7,0L0,111c4-0.7,4.5-3.3,4.3-6.9C4,96.9,4,89.7,4.3,82.5
		c0.1-3.1-0.8-4.6-4-4.5L0.1,67.5c5.4-1.2,10.9,0,16.3-0.2c3.1-0.2,6.2,0.1,9.3,0.2c1.6,3.2,0.6,6.6,0.7,9.9
		c-0.2,0.7-0.8,1.2-1.5,1.2c1.1-0.3,2.4,0,4.1,0c0.2,0-0.5-0.7-0.5-0.1c0,0.2-0.1,0.1-0.3,0.1"/>
	<path class="st3" d="M314.3,91.8c0-15.8,9.4-25,26.4-25.7c1.9-0.2,3.9-0.1,5.8,0.1C350.8,67,355,67,359,65c1.9-1,2.8-0.6,3.3,1.7
		c1.5,7.8,3.1,15.5,4.9,23.3c0.5,2.4-0.2,3.3-2.5,3.5c-0.4,0.1-0.8,0.2-1.2,0.3c-6.8,1.2-6.8,1.2-10.4-4.8c-3.2-5.3-5.8-6.9-9.3-5.7
		s-5.3,5.6-4.5,10.9c0.3,2.9,1.3,5.6,3,8c4.6,6.1,11.8,5.4,15.2-1.4c0.8-1.6,0.7-4.6,3-4.3c3.4,0.3,6.7,1.6,9.9,2.6
		c0.9,0.3,0.3,1.5,0.1,2.2c-2.4,6.7-4.8,13.4-7.1,20.2c-0.6,1.7-1.4,2.2-3,1.4c-3.7-1.7-7.6-1.1-11.4-0.6
		C329.6,124.8,314.3,111.4,314.3,91.8z"/>
	<path class="st3" d="M153.5,96.1v9.4c0,2.2-1,4.9,3,4.8c1,0,1,1,1.2,1.8c1.4,8.4,0.6,9.3-8,9.1c-5-0.1-9.9-0.2-14.9,0.1
		c-3,0.1-3.9-1-3.6-3.8c0.2-1.6,0-3.3,0.1-4.9c0-1,0-2.4,1.1-2.3c3.7,0.2,2.9-2.4,2.9-4.4v-21c0-1,0.7-2.4-0.8-2.8
		c-1.1-0.3-1.9,0.9-2.6,1.7c-0.3,0.4-0.6,0.9-0.9,1.4c-1.1,1.6-0.7,4.5-2.4,4.9c-2.9,0.7-6,0.3-9,0.3c-1.7,0-1.6-1.1-1.3-2.3
		c1.7-7.6,3.5-15.2,5.1-22.8c0.5-2.3,1.6-1.9,2.8-0.8c2.8,2.5,6.2,2.5,9.7,2.5c5.8-0.1,11.6-0.1,17.4,0c3.5,0.1,6.9,0,9.7-2.5
		c1.6-1.4,2.5-1.1,3,1.2c1.5,7.3,3.2,14.7,4.9,22c0.5,2.2,0.1,3.1-2.3,2.8c-1.2-0.2-2.5-0.2-3.7,0c-3.5,0.6-5.9-0.4-6.3-4.3
		c-0.2-0.7-0.5-1.3-0.9-1.8c-0.8-1.2-1.7-2.6-3.2-2.2s-0.7,2.1-0.8,3.2C153.5,88.9,153.6,92.5,153.5,96.1L153.5,96.1z"/>
	<path class="st3" d="M393.7,121c-7.8,1-15.7,0.2-23.5,0.4c-1,0.1-1.9-0.5-2-1.5l0,0l0,0c0-0.2,0-0.4,0-0.5V112
		c-0.1-1.3,0.7-2.4,2-2.6c0.2,0,0.3,0,0.5,0c2.5,0,3.3-1.6,4-3.5c3.1-8.5,6.5-16.9,9.1-25.5c1-3.3,0.1-7.2-0.1-10.8
		c-0.1-1.9,0.5-2.7,2.5-2.7c8.7,0.1,17.4,0.1,26.1,0.1c1.7,0,2.3,0.7,2.1,2.2c-2,13.3,5,24.5,8.4,36.6c0.5,1.9,1.2,3.7,3.8,3.4
		c1.5-0.2,1.8,0.9,1.7,2.1v0.4c0.6,9.7,0.6,9.7-9.2,9.6c-8-0.1-15.9-0.3-23.9-0.4c-1.5-3-0.5-6.3-0.8-9.4c1.1-3,1.1-3-1.4-4.5
		c-0.4,1.6,1.4,2.2,1.3,3.6C394.1,114.1,395.3,117.6,393.7,121z"/>
	<path class="st3" d="M517.4,121.4c-8.6,0-17.1-0.2-25.7-0.1c-2.3,0-3.4-0.6-3-3c0.6-3.3-1.8-7.4,2.8-9.7c0.4-0.2,0.2-1.5,0.2-2.4
		V82c0-1.5,0.1-2.7-1.9-3.5c-2.2-0.9-1-3.4-1-5.2c-0.1-6.1,0-6.2,5.9-6.2h31.1c5.7,0,10.8,1.5,13.2,7.3s0.7,11.1-3.7,15.4
		c-1.5,1.4-1.7,2.4-0.5,4.2c2.4,3.8,4.4,7.9,6,12.2c0.7,1.7,1.2,3.3,3.6,3.3c1.3,0,1.6,1,1.8,2.3c1.2,9.3,0.8,9.7-8.3,9.7
		L517.4,121.4z"/>
	<path class="st3" d="M453.1,67.4c5.9,0,11.9-0.2,17.8,0c5.3,0.2,10.2,1.8,12.3,7.3s0.8,10.8-3.2,15.2c-4.6,5.1-10.8,7.5-17.2,9.4
		c-2.7,0.8-4,1.9-3.5,4.8c0.4,2.2-1.4,5.7,3.3,5.3c1.3-0.1,1.5,1,1.5,2c0,2.6-0.1,5.2,0,7.8c0,1.7-0.9,2.1-2.3,2.1h-27.3
		c-1.4,0-2.8-0.2-2.4-1.9c0.9-3.4-2.7-8.1,2.8-10.4c0.4-0.2,0.4-1.5,0.4-2.3V82c0-1.5,0.1-2.8-2-3.4c-2.5-0.8-1.2-3.3-1.2-5
		c-0.2-6.3-0.1-6.4,6.2-6.4C443.1,67.2,448.1,67.4,453.1,67.4L453.1,67.4z"/>
	<path class="st3" d="M58.8,93.8c0.3-15.6,13.1-28,28.7-27.8h0.6c15.9,0.4,28.2,13,27.9,28.7c-0.3,15.6-13.2,28.1-28.9,27.8l0,0l0,0
		C70.6,121.9,58.5,109.7,58.8,93.8z"/>
	<path class="st3" d="M564.4,121.3c-4,0-8-0.1-12,0c-2,0.1-3.1-0.5-2.9-2.7c0.2-2,0-4.1,0-6.2c0-0.7,0-1.8,0.3-1.9
		c4.9-1.6,2.7-5.7,2.8-8.7c0.3-6,0.1-12,0.1-18.1c0-2.1,0.1-3.8-2.3-5.7s-1.1-6.4-0.7-9.7c0.1-1.3,3-1.1,4.6-1.2
		c7.3-0.2,14.6,0,21.9-0.3c3.4-0.2,4.4,1.1,4,4.2c-0.1,1.6-0.1,3.3,0,4.9c0,0.8,0.3,2.1-0.5,2.2c-4.2,0.9-2.7,4.2-2.7,6.6
		c-0.2,6.6-0.1,13.2,0,19.7c0,2.2,0,3.8,2.3,5.8c2.6,2.2,1.2,6.7,0.7,10.1c-0.3,2-3.1,0.9-4.7,1
		C571.6,121.5,568.1,121.4,564.4,121.3L564.4,121.3z"/>
	<path class="st0" d="M395.4,110.3c0,3.6-0.1,7.1-0.1,10.7h-1.6c0-3.8,0-7.7,0-11.5C394.5,109,395,109.5,395.4,110.3z"/>
	<path class="st4" d="M25.6,77.9l0.1-10.5h1.7l0.1,10.5C26.9,78.8,26.3,78.8,25.6,77.9z"/>
	<path class="st4" d="M27.5,110.4L27.4,121h-1.6c0-3.5,0-7-0.1-10.5c0.3-0.5,1-0.7,1.5-0.3C27.3,110.2,27.4,110.3,27.5,110.4z"/>
	<path class="st0" d="M210.4,66.6c1.4,5.9,2.9,11.9,4.2,17.8c0.2,1,1.5,2.7-0.3,3.1c-1.6,0.4-3.7,1-4.9-1c-0.8-1.3-1.4-2.8-2.2-4.3
		c2.9-0.6,2.6,2.7,4.9,3.2c-0.9-4.1-1.8-8-2.7-12c0-0.8-0.7-1.4-1.5-1.4h-0.2c-9.6,1-19.2-0.1-30.2,0.7c4.7,1.9,4.9,4.7,4.9,7.9
		c-0.1,9.6,0,19.2,0,28.8c0,2.8-0.1,5.5-3.3,7.2c8.9,0,17.8-0.3,26.6,0.1c4,0.2,5.8-0.9,6.6-4.8s2.3-7.5,3-11.4
		c-1.6,2.2-2.9,4.5-4.7,6.5c-3.9,4.7-9.8,7.1-15.8,6.3c-2.9-0.2-4.7-1.5-4.7-4.6c0-6,0-12.1-0.1-18.1c0-1.8,0.7-2.3,2.4-2.4
		c5-0.2,9.1,0.8,10.9,6.1c0.1,0.3,0.5,0.6,1.7,1.9c-0.9-5.8-1.6-10.4-2.6-16.4c-1.8,4.3-4.3,5.2-7.4,4.9c-2.1-0.2-5.3,1.7-5.1-2.9
		c0.2-4.8,1-5.8,5.3-5.9c2.1,0,4.1,0.4,6.1,1c2.7,0.7,4.1,2.1,4.3,5.1c0.2,4.2,1.2,8.4,1.9,12.6c0.2,1.2,1.5,2.9-0.9,3.2
		c-1.7,0.2-4,1-4.8-1.8c-0.4-1.8-1.3-3.3-2.7-4.6c-1.5-1.3-3.6-1.7-5.5-1.1s-1,2.6-1,4c-0.1,4,0.3,8,0,11.9s1.9,4.4,4.8,4.2
		c6.6-0.4,10.9-4.1,14.2-9.4c0.6-0.9,1-2,1.6-2.9c1.2-2,3.4-1.4,4.9-1c2.1,0.5,0.6,2.3,0.3,3.4c-1.7,5.8-3.6,11.5-5.4,17.2
		c-0.5,1.6-1,2.9-3.1,1.5c-1.6-1.1-3.4-0.9-5.2-0.9H179c-1.3,0-3.4,0.7-3.2-1.8c0.1-1.5-1.1-3.9,2-4c1.7,0,2-1.3,2-2.5
		c0.1-10.7,0.1-21.4,0.1-32.1c0-1.3-0.4-2.3-2.1-2.5c-2.9-0.3-1.9-2.6-1.9-4.1c0-2.2,1.8-1.6,3.1-1.6c7.6,0,15.2-0.1,22.8,0
		c3.1,0,6.2,0.1,7.7-3.8L210.4,66.6z"/>
	<path class="st0" d="M208.6,100.7c-1.2,2.2-3,4-5.1,5.3c-2.3,1.4-5.1,2.8-7.4,1.6c-1.7-0.9-0.5-3.8-0.6-5.8c-0.1-2.2,0-4.4,0-6.6
		c0-0.6-0.3-1.5,0.7-1.7c0.8-0.2,1.2,0.5,1.7,1c0.1,0.1,0.2,0.2,0.2,0.4C199.1,100.4,202.7,102,208.6,100.7z"/>
	<path class="st0" d="M239.3,69.9h7c1.4,0,3.4-0.7,3.2,1.9c-0.1,1.5,1,3.9-2,4c-2.1,0.1-1.9,1.5-1.9,2.9c0,9.7,0.1,19.5,0,29.2
		c0,2.9,1.5,3.1,3.7,2.8c6.4-0.9,9.6-5.5,12.4-10.5c1.2-2.3,2.6-3.2,5.2-3c1.9,0.1,2.4,0.6,1.8,2.5c-2.3,6.3-4.5,12.6-6.8,18.9
		c-0.3,0.8-0.5,2.2-1.9,1.4c-4.1-2.4-8.6-1.1-13-1.3c-5.1-0.2-10.2-0.1-15.3-0.1c-1.3,0-3.1,0.4-2.8-1.9c0.2-1.5-1.2-3.9,2-3.9
		c2.1,0,2-1.6,2-2.9c0.1-10.4,0.1-20.8,0.1-31.3c0-1.2-0.1-2.7-1.8-2.8c-3.3-0.1-2.3-2.5-2.3-4.2c0-2.5,2.1-1.6,3.4-1.7
		C234.6,69.8,237,69.9,239.3,69.9L239.3,69.9z"/>
	<path class="st0" d="M245.3,28c-11.2-4.4-23.1-6.8-35.2-7.2c-11.7-0.5-23.3,1.2-34.9,2.5c16.2-10.7,54.4-8.4,71.2,3.6
		C246.6,27.8,246.3,28.2,245.3,28z"/>
	<path class="st0" d="M402.4,23.2c-12.8-1.7-24.9-3.3-37.2-2.3c-12.3,0.9-24.3,4-35.5,9.1C339.5,16.1,388.4,11.6,402.4,23.2z"/>
	<path class="st0" d="M19.6,101.6v7.4c0,2-0.2,3.7,2.7,4c2.2,0.2,0.9,2.7,1.1,4.1c0.2,1.7-1.1,1.5-2.2,1.5H5.1c-1.5,0-2.5-0.3-2.3-2
		c0.2-1.3-0.9-3.5,1.5-3.6s2.5-1.7,2.6-3.4C7,99.4,7,89.3,7,79.2c0-1.7,0-3.2-2.5-3.4s-1.5-2.5-1.6-4C2.7,70,4.1,70,5.4,70
		c5.1,0,10.2-0.1,15.3-0.1c1.3,0,3.1-0.4,2.8,1.8c-0.2,1.5,1.4,3.8-1.8,4.1s-1.9,2.8-2.1,4.4c-0.2,2.2,1.6,1.8,2.9,1.8
		c2.4,0,4.7,0.2,7,0c1.4-0.1,3.8,1.2,3.9-1.5c0.1-1.8,1.3-4.5-2.5-4.9c-2.4-0.3-1.1-2.7-1.3-4.1c-0.2-1.7,1.1-1.5,2.2-1.5h15.7
		c1.3,0,2.7,0,2.5,1.8c-0.1,1.5,0.9,3.7-1.6,4s-2.5,1.8-2.5,3.5c0,10.2,0,20.3,0.1,30.4c0,1.3-0.2,3.1,1.8,3.1
		c3.3,0.1,2.3,2.5,2.3,4.2c0.1,2.5-2,1.7-3.3,1.7c-5,0.1-9.9,0-14.9,0c-1.2,0-2.8,0.3-2.5-1.7c0.2-1.5-1.3-3.9,1.8-4.1
		c2-0.1,2.1-1.3,2.1-2.8c0-5.8,0-11.5,0.1-17.3c0-1.7-0.5-2.6-2.3-2.4h-0.4C19.6,89.8,19.6,89.8,19.6,101.6z"/>
	<path class="st0" d="M27.5,110.4h-1.8c-2.4,0-3.7-0.8-3.5-3.6c0.2-3.8,0.2-7.6,0-11.5c-0.1-2.6,1.6-2.6,3.2-2.2
		c1.8,0.5,5.2-2.1,5.4,2.2c0.2,3.8-0.1,7.7,0.1,11.5C31.1,109.5,30,110.5,27.5,110.4z"/>
	<path class="st0" d="M342.4,68.9c5.8-0.1,10.9,1.7,15.9-0.7c1.2-0.6,1.5,0.6,1.7,1.6c1.3,6.2,2.6,12.3,3.9,18.5
		c0.3,1.3,0.2,2.7-1.5,2.7s-4,2-5.5-0.8c-1.1-2.1-2.3-4-3.7-5.9c-2.2-2.9-5-4.7-8.9-4c-4.1,0.7-6.3,3.4-7.2,7.1
		c-1.5,5.5-0.5,11.4,2.8,16.1c5.5,7.7,15.2,7,19.8-1.3c0.9-1.6,1.4-3.1,3.9-2.5c3,0.7,4.2,1.5,2.7,4.8c-1.9,4.1-3.1,8.5-4.6,12.8
		c-0.5,1.3-0.8,2.8-2.8,2c-3.4-1.4-6.8-0.1-10.2,0.2c-24.8,2.7-36.1-18.6-30.1-37c2.1-6.4,6.9-10.4,13.5-12.2
		C335.4,69.2,338.9,68.8,342.4,68.9z"/>
	<path class="st0" d="M150.8,95.3c0,4.2-0.1,8.5,0,12.7c0.1,2.2-0.6,4.7,3.2,5c1.9,0.1,0.8,2.5,1,3.9c0.3,1.6-0.9,1.7-2.1,1.7h-16.5
		c-1.4,0-2.6-0.2-2.2-1.9c0.3-1.3-1.3-3.7,1.5-3.8c2.6-0.1,2.4-1.7,2.5-3.3c0.1-9.6,0.1-19.2,0.2-28.8c0-2.1-0.8-2.6-2.8-2.2
		c-3.4,0.7-6.3,3.1-7.6,6.4c-0.5,1.2-0.6,2.7-2.5,2.8c-2.5,0.1-4.7,0.4-3.5-3.5c1.4-4.6,2.2-9.3,3.3-14c0.2-0.9,0.2-2.8,1.8-1.8
		c3.8,2.3,7.8,1.2,11.7,1.3c5.6,0.2,11.3,0,17,0c1,0,2.1,0.3,2.9-0.1c5.5-3.2,5.5,1,6.2,4.4s1.5,6.7,2.1,10c0.2,1.1,1.8,2.9-0.4,3.3
		c-1.8,0.3-4.2,1.2-5.2-1.8c-0.9-3.2-3.3-5.8-6.5-6.9c-2.9-1-4.4-0.8-4.2,2.8c0.3,4.5,0.1,9,0.1,13.6L150.8,95.3z"/>
	<path class="st0" d="M411.8,118.6c-3.5,0-6.9,0.1-10.4,0c-1.2,0-3.3,0.8-3.3-1.2c-0.1-1.8-1.5-4.3,1.4-5.3c1.2-0.4,1.8-1,1.7-2.3
		c-0.4-3.1-7.2-8.4-10-7.2s-2.4,4.6-3.3,7.1c-0.5,1.2-0.3,2.2,1.6,2.5c3,0.5,1.3,3.1,1.6,4.7c0.3,2.2-1.5,1.8-2.8,1.8h-14.1
		c-1.2,0-3.2,0.7-2.9-1.6c0.2-1.7-1.3-4.1,1.5-4.8s3.9-2.8,4.7-5.2c3.3-9.1,6.7-18.3,10-27.4c0.6-1.2,0.5-2.7-0.3-3.8
		c-2-3.8-0.7-5.8,3.6-5.8c5.5,0,11-0.1,16.6-0.1c4.5,0,6,1.9,3.9,5.9c-0.7,1.1-0.8,2.5-0.2,3.8c3.2,9.3,6.2,18.7,9.5,28
		c0.7,1.9,1,4,3.9,4.7c2.4,0.5,0.8,3.3,1,5s-1.4,1.3-2.4,1.3h-11.2L411.8,118.6z"/>
	<path class="st0" d="M395.4,110.3l-1.8-0.8c-0.8-0.6-2.9,0.1-2.3-2c0.2-0.8,0.5-2.1,1.8-1.7c1.7,0.5,3.6,1.1,4.3,2.8
		C398.1,109.9,396.1,109.6,395.4,110.3z"/>
	<path class="st0" d="M517.1,118.5c-7.5,0-14.9,0.1-22.4,0c-1.2,0-3.2,0.9-3.3-1.2c-0.1-1.7-1.3-4.2,1-5.1s1.9-2.5,1.9-4
		c0.1-9.5,0.1-18.9,0.1-28.4c0-1.3,0.1-2.6-1.7-3.3c-2.8-1-1.4-3.6-1.3-5.3c0-2.1,2.1-1.3,3.3-1.3c9.9-0.1,19.9,0,29.8,0h1.7
		c4.4,0.2,8.2,1.4,10,5.9c1.9,4.2,0.7,9.1-3,11.9c-3.7,2.9-3.1,4.9-0.9,8.3c2.3,3.5,3.8,7.6,5.6,11.4c0.9,1.9,1.4,4,4,4.9
		c2.3,0.8,1,3.4,1,5.1c0,1.9-1.9,1.1-2.9,1.1C532.4,118.6,524.8,118.5,517.1,118.5L517.1,118.5z"/>
	<path class="st0" d="M454.2,70.1c5.5,0,11-0.2,16.5,0.1c4.1,0.2,8.1,1.4,9.7,5.8s0.6,8.6-2.7,12.2c-4.3,4.8-10,7.4-16.1,8.8
		c-4.5,1-5.9,3.1-5.2,7.2c0.1,1.6,0.1,3.3,0,4.9c-0.1,1.4,0.2,2.6,1.8,2.7c3.9,0.2,2.8,3,2.8,5.1c-0.1,3.1-2.6,1.8-4.1,1.8
		c-6.3,0.1-12.7,0.1-19,0c-1.2,0-3.2,0.9-3.3-1.2c-0.1-1.7-1.2-4.2,1-5.2s2-2.5,2-4c0-9.3,0-18.7,0-28c0-1.6,0.2-3-2.1-3.9
		s-1.1-3.4-0.9-5.2c0.1-2.1,2.1-1.3,3.3-1.3C443.5,69.7,448.9,70,454.2,70.1L454.2,70.1z"/>
	<path class="st0" d="M86.3,119.6c-15-1-25.7-12.6-24.6-26.5C62.9,78.3,74.7,68,89.3,69c13.9,0.9,25,13.1,24.1,26.5
		C112.3,110,100.5,120.5,86.3,119.6z"/>
	<path class="st0" d="M555.4,94c0-4.4,0-8.8,0-13.1c0-1.8,0.4-3.6-2.2-4.6c-1.9-0.8-1-3.5-0.8-5.3s2-1.1,3.1-1.1
		c6.2,0,12.4,0,18.6,0.1c1.2,0,3.2-0.6,3.2,1.5c0,1.7,1.3,4.2-1.3,5c-1.9,0.6-1.8,1.7-1.8,3.1V109c0,1.2-0.3,2.5,1.4,3
		c3.1,0.8,1.8,3.4,1.7,5.2c-0.1,2.3-2.3,1.3-3.6,1.4c-6.1,0.1-12.1,0.1-18.2,0.1c-1.1,0-2.9,0.7-3-1.1s-1.2-4.3,0.9-5.2
		c2.4-1,2-2.7,2.1-4.3C555.5,103.3,555.4,98.6,555.4,94z"/>
	<path class="st3" d="M264.6,102.6c-1.5,4.3-3,8.7-4.6,13c-0.2,0.8-1,1.4-1.8,1.3c-8.8,0-17.5,0-26.7-0.4c4-1.4,3.7-4.6,3.7-7.5
		c0-9.4-0.1-18.9-0.1-28.3c0-3.1-0.2-6-3.6-7.6h14.8c-3.2,1.5-3.4,4-3.4,6.9c0,9.4-0.2,18.9-0.1,28.3c0,4.7,1.4,5.7,6.1,5.5
		c4.2-0.2,8.1-2.3,10.6-5.6c1.5-1.9,2.9-3.9,4.3-5.9L264.6,102.6z"/>
	<path class="st3" d="M20.2,116.6H4.9c5-2,4.3-5.7,4.3-9c0-9.5-0.1-18.9,0-28.4c0-2.7-0.5-5-3.7-6h15.4c-5.4,2.4-3.8,6.7-4.1,10.4
		c-0.1,1.3,0.9,1.5,1.9,1.5c5.1,0,10.2-0.1,15.3,0c1.4,0,2.1-0.4,2-1.9c-0.4-3.6,1.4-7.9-3.4-10.2H47c-3,1.7-3.4,4.4-3.4,7.2
		c-0.1,10-0.1,20-0.1,30c0,2.5,0.6,4.9,3.4,6.2H32.6c4.3-2.6,3.6-6.7,3.6-10.7c0-4.8-0.2-9.6-0.1-14.4c0-2.2-0.4-3.2-2.9-3.1
		c-4.4,0.2-8.8,0.1-13.2-0.2c-2.7-0.2-3.2,0.9-3.2,3.3c0.2,5.9,0,11.8,0.1,17.7C16.9,112.1,16.4,115.2,20.2,116.6z"/>
	<path class="st3" d="M364.1,103c-1.6,4.4-3.1,8.8-4.6,13.1c-0.1,0.6-0.6,0.9-1.2,0.9c-6.8-0.8-13.6,1.6-20.5-0.1
		c-18.3-4.6-21.5-23.8-16.3-34.9c2.7-5.7,7.8-8.3,13.7-9.4c5-0.9,10.2-0.9,15.2,0c2.5,0.5,5.5-2.2,7.2,0.5c1.2,1.9,1.2,4.7,1.7,7.1
		c0.5,2.1,1,4.3,1.4,6.4c0.1,0.8,1,2-0.4,2.5s-1.9-0.7-2.4-1.6c-1.3-2.4-3-4.6-5-6.5c-4.5-4.1-11.4-3.8-15.5,0.6
		c-0.3,0.3-0.6,0.6-0.8,1c-6.2,8.1-2.1,24,7.3,28.1c6.2,2.7,12.7,0.8,16.7-4.9c0.7-1,0.8-2.4,2.2-2.9
		C363,102.8,363.3,102.9,364.1,103z"/>
	<path class="st3" d="M124.1,85.8c1-4.3,1.9-8,2.6-11.7c0.3-1.5,1.1-1.5,2.4-1.5h30.6c1.3,0,2,0.2,2.2,1.6c0.7,3.7,1.6,7.4,2.1,11.5
		c-2.5-5.8-6.9-8.7-13-9.2c-2.1-0.2-2.9,0.3-2.9,2.6c0.1,10.1-0.1,20.3,0,30.4c0,2.7-0.1,5.7,3.5,7.1h-15c4.4-1.8,3.9-5.3,3.9-8.7
		c-0.1-9.2-0.2-18.4,0.1-27.6c0.1-3.8-1.1-4.3-4.5-3.6C131.5,77.6,131.5,77.4,124.1,85.8z"/>
	<path class="st3" d="M411.6,116.8h-9.5c-0.7,0-1.5,0-1.6-0.9c0.1-0.5,0.3-1,0.8-1.2c4-2.2,2.8-5.3,1-8c-2.8-4.2-7.3-5.6-12-6.3
		c-0.3,0-0.6-0.1-0.8,0c-2.9,2.3-2.9,5.9-4,9c-0.6,1.7-1.1,3.9,1.3,5c0.8,0.4,1.7,0.5,1.5,1.6s-1.3,0.8-2.1,0.8H375
		c-0.7,0-1.5-0.1-1.7-0.9s0.4-1.2,1.1-1.5c3-1.2,4.1-3.8,5.1-6.6c3.5-9.4,6.9-18.8,10.3-28.1c0.4-1.2,1-2.6,0.4-3.6
		c-3-4.5,0.6-3.5,2.9-3.5c4.4,0,8.8,0.1,13.2,0.1c2.2,0,3.5,0.5,1.5,2.7c-1.2,1.3-0.4,2.7,0,3.8c3.5,10.2,7,20.4,10.6,30.6
		c0.6,1.8,1.2,3.7,3.2,4.5c0.8,0.3,1.2,0.8,1,1.5c-0.3,1.1-1.3,0.8-2,0.8L411.6,116.8L411.6,116.8z"/>
	<path class="st3" d="M493.7,73.7c1.5-1.4,3.1-1,4.5-1c8.8,0,17.7-0.1,26.5,0.2c3.8,0.1,8,0,9.4,4.9c1.1,3.9-0.5,7.8-5.1,10.7
		c-2.8,1.8-3.5,3-1.1,5.8c3.6,4.4,5.7,9.7,7.9,14.8c0.9,2,1.5,4.2,3.7,5.3c0.7,0.3,1.1,0.9,0.9,1.6s-1.1,0.7-1.7,0.7H522
		c-1.8,0-3.1-0.6-1.2-2.3c1.6-1.5,1.5-3.2,0.9-4.9c-1.5-4.6-4-8.8-7.2-12.3c-0.8-0.9-1.6-1.6-2.8-1.1c-1.3,0.6-1,1.5-1,2.5
		c0,4,0.1,8,0.1,11.9c0,1.1,0.3,2.2,0.9,3.1c0.6,0.8,2.5,0.9,1.9,2.3s-2.2,0.8-3.3,0.8c-4.8,0.1-9.7,0-14.5,0
		c-0.6,0-1.5,0.2-1.8-0.7s0.2-1.2,0.9-1.6c2.1-1.1,2-3.1,2-5c0-9.9-0.1-19.8,0.1-29.6C497,77,495.2,75.5,493.7,73.7z"/>
	<path class="st3" d="M455.1,72.8c4.2,0.1,9.9-0.2,15.5,0.5c3,0.4,6.3,0.8,7.4,4.2c1.3,3.6,0.2,7.7-2.8,10.1c-4.8,4.4-10.8,6.7-17,8
		c-3.4,0.8-5,2.1-4.5,5.7c0.2,2.5,0.2,4.9,0.1,7.4c0,2.7,0,5.3,3.5,6c0.6,0.1,1,0.6,0.9,1.2c-0.1,0.9-0.9,0.9-1.5,0.9H439
		c-0.7,0-1.5,0-1.7-0.8s0.4-1.2,1-1.6c1.7-1,1.8-2.6,1.8-4.3V79.6c0-1.8,0-3.6-1.9-4.7c-0.6-0.3-1.3-0.9-0.8-1.6
		c0.5-0.4,1.2-0.7,1.8-0.6C444.1,72.8,448.9,72.8,455.1,72.8z"/>
	<path class="st3" d="M110.4,94.9c-0.1,12.9-10.1,22.6-23.3,22.5s-23.2-10-23.2-22.8s10.4-22.9,23.7-22.8
		C100.7,72,110.5,81.8,110.4,94.9z"/>
	<path class="st3" d="M564.4,116.8c-1.5,0.1-3,0.1-4.5-0.1c-2-0.3-8.2,1.9-2.6-3.8c0.5-0.5,0.4-1.6,0.4-2.4V79
		c0.1-1.1-0.2-2.2-0.8-3.1c-0.7-0.8-2.5-0.9-1.9-2.3s2.2-0.8,3.3-0.8c4.7-0.1,9.3-0.1,14-0.2c0.8,0,1.8-0.1,2.2,0.8
		s-0.6,1.4-1.2,1.8c-1.4,1-1.6,2.4-1.6,4v31.2c0,1.6,0.3,3,1.8,3.9c0.7,0.4,1.5,0.9,1,1.9s-1.5,0.6-2.2,0.6L564.4,116.8L564.4,116.8
		z"/>
	<path class="st0" d="M395,83.6c1.5,4.9,2.9,9.3,4.4,14.2c-2.9-0.7-4.9-2.1-7.4-2.3c-1.1-0.1-1.8-0.7-1.2-1.9
		C392.2,90.4,392.8,86.8,395,83.6z"/>
	<path class="st0" d="M510.6,84.4c0-0.8,0-1.6,0-2.5c-0.4-3.7,1.3-4.8,4.8-4.7c3.6,0.2,5.5,1.4,5.3,5.2c-0.2,3.9-4.2,7.9-8.4,8.4
		c-1.4,0.2-1.7-0.4-1.7-1.5L510.6,84.4z"/>
	<path class="st0" d="M454,91.7c0-4,0.1-7,0-10c-0.2-3.5,1.5-4.6,4.7-4.4s5.7,1,5.8,4.8c0,2.5-1.4,4.9-3.7,6
		C458.7,89.3,456.6,90.3,454,91.7z"/>
	<path class="st0" d="M72,92.3c0-3.5,0.9-6.9,2.6-10c3.4-6.2,11.2-8.6,17.4-5.2c0.3,0.1,0.5,0.3,0.8,0.5c9.3,5.5,13,20.8,7.2,29.9
		c-3.7,6.2-11.8,8.2-18,4.5c-0.8-0.5-1.6-1.1-2.3-1.8C74.3,105.4,72.1,99.2,72,92.3z"/>
</g>
</svg>
