<?xml version="1.0" encoding="utf-8"?>
<!-- Generator: Adobe Illustrator 26.3.1, SVG Export Plug-In . SVG Version: 6.00 Build 0)  -->
<svg version="1.1" id="Capa_1" xmlns="http://www.w3.org/2000/svg" xmlns:xlink="http://www.w3.org/1999/xlink" x="0px" y="0px"
	 viewBox="0 0 3303.6 506.5" style="enable-background:new 0 0 3303.6 506.5;" xml:space="preserve">
<style type="text/css">
	.st0{fill:#A78328;}
</style>
<g>
	<g>
		<polygon class="st0" points="281.9,0 340.1,182.6 556,182.6 381.2,311.2 444.4,511.3 276.1,389.1 116.6,505.4 178.6,316.2 
			0,182.6 222.4,182.6 		"/>
	</g>
</g>
<g>
	<g>
		<polygon class="st0" points="968.8,0 1027,182.6 1242.9,182.6 1068.1,311.2 1131.3,511.3 963,389.1 803.5,505.4 865.5,316.2 
			686.9,182.6 909.3,182.6 		"/>
	</g>
</g>
<g>
	<g>
		<polygon class="st0" points="1655.7,0 1713.9,182.6 1929.8,182.6 1755,311.2 1818.2,511.3 1649.9,389.1 1490.4,505.4 
			1552.4,316.2 1373.8,182.6 1596.2,182.6 		"/>
	</g>
</g>
<g>
	<g>
		<polygon class="st0" points="2342.6,0 2400.8,182.6 2616.7,182.6 2441.9,311.2 2505.1,511.3 2336.8,389.1 2177.3,505.4 
			2239.3,316.2 2060.7,182.6 2283.1,182.6 		"/>
	</g>
</g>
<g>
	<g>
		<polygon class="st0" points="3029.5,0 3087.7,182.6 3303.6,182.6 3128.8,311.2 3192,511.3 3023.7,389.1 2864.2,505.4 
			2926.2,316.2 2747.6,182.6 2970,182.6 		"/>
	</g>
</g>
</svg>
