<?xml version="1.0" encoding="UTF-8"?><svg id="Capa_1" xmlns="http://www.w3.org/2000/svg" viewBox="0 0 3303.64 511.26"><defs><style>.cls-1{fill:#a78328;}</style></defs><polygon class="cls-1" points="281.93 0 340.14 182.63 556.04 182.63 381.23 311.24 444.36 511.26 276.11 389.1 116.64 505.36 178.64 316.18 0 182.63 222.42 182.63 281.93 0"/><polygon class="cls-1" points="968.83 0 1027.04 182.63 1242.94 182.63 1068.13 311.24 1131.26 511.26 963.01 389.1 803.54 505.36 865.54 316.18 686.9 182.63 909.32 182.63 968.83 0"/><polygon class="cls-1" points="1655.73 0 1713.94 182.63 1929.84 182.63 1755.03 311.24 1818.16 511.26 1649.91 389.1 1490.44 505.36 1552.44 316.18 1373.8 182.63 1596.22 182.63 1655.73 0"/><polygon class="cls-1" points="2342.63 0 2400.84 182.63 2616.74 182.63 2441.93 311.24 2505.06 511.26 2336.81 389.1 2177.34 505.36 2239.34 316.18 2060.7 182.63 2283.11 182.63 2342.63 0"/><polygon class="cls-1" points="3029.53 0 3087.74 182.63 3303.64 182.63 3128.83 311.24 3191.96 511.26 3023.71 389.1 2864.24 505.36 2926.24 316.18 2747.6 182.63 2970.01 182.63 3029.53 0"/></svg>