<svg id="Layer_1" data-name="Layer 1" xmlns="http://www.w3.org/2000/svg" viewBox="0 0 440 257"><defs><style>.cls-1{fill:silver;}.cls-2{fill:#00247d;}.cls-3{fill:#fff;}.cls-4{fill:#cf142b;}</style></defs><path class="cls-1" d="M0,13.5a454.9,454.9,0,0,1,220,0,454.9,454.9,0,0,0,220,0v230a454.9,454.9,0,0,1-220,0,454.9,454.9,0,0,0-220,0Z"/><path class="cls-2" d="M10,23.5q105-28,210,0t210,0v210q-105,28-210,0t-210,0Z"/><path class="cls-3" d="M10,23.5a420.73,420.73,0,0,1,47-9.72Q138.47,42.52,220,105q81.53-19,163-71.8a420.73,420.73,0,0,0,47-9.72V47q-81.53,62.51-163,91.24Q348.47,191,430,210V233.5a420.73,420.73,0,0,1-47,9.72Q301.53,214.48,220,152q-81.52,19-163,71.8a420.73,420.73,0,0,0-47,9.72V210q81.52-62.51,163-91.24Q91.53,66,10,47Z"/><path class="cls-4" d="M10,23.5Q115,48,220,128.5q-15.65-4.17-31.3-7.1Q99.35,60,10,39.15Zm210,89.35Q309.36,92,398.7,30.6q15.65-2.93,31.3-7.1Q325,104,220,128.5ZM430,233.5Q325,209,220,128.5q15.65,4.17,31.3,7.1Q340.66,197,430,217.85ZM220,144.15Q130.65,165,41.3,226.4q-15.64,2.92-31.3,7.1,105-80.5,210-105Z"/><path class="cls-3" d="M185,15.72q17.5,3.12,35,7.78t35,7.78v70q87.5,15.56,175-7.78v70q-87.49,23.34-175,7.78v70q-17.5-3.12-35-7.78t-35-7.78v-70Q97.51,140.17,10,163.5v-70q87.5-23.34,175-7.78Z"/><path class="cls-4" d="M199,18.46q10.5,2.23,21,5t21,5v84q94.5,20.16,189-5v42q-94.5,25.2-189,5v84q-10.5-2.23-21-5t-21-5v-84q-94.5-20.16-189,5v-42q94.5-25.2,189-5Z"/></svg>