<?xml version="1.0" encoding="UTF-8"?><svg id="Layer_1" xmlns="http://www.w3.org/2000/svg" viewBox="0 0 60 60"><defs><style>.cls-1{fill:#f2f2f2;}.cls-2{fill:#3a3a3a;}</style></defs><rect class="cls-1" width="60" height="60"/><path class="cls-2" d="M16,34.9v3.92c-3.18,0-6.23,1.24-8.49,3.44-2.25,2.2-3.51,5.19-3.51,8.31H0c0-4.16,1.69-8.14,4.69-11.08,3-2.94,7.07-4.59,11.31-4.59Zm0-1.96c-6.63,0-12-5.26-12-11.75s5.37-11.75,12-11.75,12,5.26,12,11.75-5.37,11.75-12,11.75Zm0-3.92c4.42,0,8-3.51,8-7.83s-3.58-7.83-8-7.83-8,3.51-8,7.83,3.58,7.83,8,7.83Zm18,11.75h2v9.79H20v-9.79h2v-1.96c0-1.56,.63-3.05,1.76-4.15,1.13-1.1,2.65-1.72,4.24-1.72s3.12,.62,4.24,1.72c1.13,1.1,1.76,2.6,1.76,4.15v1.96Zm-4,0v-1.96c0-.52-.21-1.02-.59-1.38-.38-.37-.88-.57-1.41-.57s-1.04,.21-1.41,.57c-.38,.37-.59,.87-.59,1.38v1.96h4Z"/></svg>