<?xml version="1.0" encoding="UTF-8"?><svg id="Layer_1" xmlns="http://www.w3.org/2000/svg" viewBox="0 0 60 60"><defs><style>.cls-1{fill:#f2f2f2;}.cls-2{fill:#3a3a3a;}</style></defs><rect class="cls-1" width="60" height="60"/><path class="cls-2" d="M37.01,28.15h-7.72l6-6-2.61-2.63-8.62,8.62h-3.7v-3.7l8.62-8.62-2.63-2.61-6,6v-7.72h-3.7v7.72l-6-6-2.63,2.61,8.62,8.62v3.7h-3.7L4.33,19.52l-2.61,2.63,6,6H0v3.7H7.72l-6,6,2.61,2.63,8.62-8.62h3.7v3.7l-8.62,8.62,2.63,2.61,6-6v7.72h3.7v-7.72l6,6,2.63-2.61-8.62-8.62v-3.7h3.7l8.62,8.62,2.61-2.63-6-6h7.72v-3.7Z"/></svg>