<?xml version="1.0" encoding="UTF-8"?><svg id="Layer_1" xmlns="http://www.w3.org/2000/svg" viewBox="0 0 60 60"><defs><style>.cls-1{fill:#f2f2f2;}.cls-2{fill:#3a3a3a;}</style></defs><rect class="cls-1" width="60" height="60"/><path class="cls-2" d="M6,38v2c0,.57-.19,1.04-.57,1.42-.38,.38-.86,.58-1.43,.58H2c-.57,0-1.04-.19-1.42-.58-.38-.38-.58-.86-.58-1.42v-15.99L4.2,12.01c.2-.6,.56-1.08,1.08-1.45,.52-.37,1.09-.55,1.72-.55H29c.63,0,1.21,.18,1.73,.55,.52,.37,.87,.85,1.07,1.45l4.2,12v15.99c0,.57-.19,1.04-.58,1.42-.38,.38-.86,.58-1.42,.58h-2c-.57,0-1.04-.19-1.42-.58-.38-.38-.58-.86-.58-1.42v-2H6Zm-.4-17.99H30.4l-2.1-6H7.7l-2.1,6Zm-1.6,4v0Zm5,8c.83,0,1.54-.29,2.12-.88,.58-.58,.88-1.29,.88-2.12s-.29-1.54-.88-2.12c-.58-.58-1.29-.88-2.12-.88s-1.54,.29-2.12,.88c-.58,.58-.88,1.29-.88,2.12s.29,1.54,.88,2.12c.58,.58,1.29,.88,2.12,.88Zm18,0c.83,0,1.54-.29,2.12-.88,.58-.58,.88-1.29,.88-2.12s-.29-1.54-.88-2.12c-.58-.58-1.29-.88-2.12-.88s-1.54,.29-2.12,.88c-.58,.58-.88,1.29-.88,2.12s.29,1.54,.88,2.12c.58,.58,1.29,.88,2.12,.88Zm-7,21.99l-12-6h8v-4l12,6h-8v4ZM4,34h28v-10H4v10Z"/></svg>