<?xml version="1.0" encoding="UTF-8"?><svg id="Layer_1" xmlns="http://www.w3.org/2000/svg" viewBox="0 0 60 60"><defs><style>.cls-1{fill:#f2f2f2;}.cls-2{fill:#3a3a3a;}</style></defs><rect class="cls-1" width="60" height="60"/><g><path class="cls-2" d="M32.4,15.02H3.6C1.62,15.02,0,16.59,0,18.52v21c0,1.93,1.61,3.5,3.6,3.5h28.8c1.99,0,3.6-1.57,3.6-3.5V18.52c0-1.93-1.61-3.5-3.6-3.5ZM3.6,39.52V18.52h28.8v21H3.6Z"/><path class="cls-2" d="M7.92,28.27h5.5c.24,0,.48-.09,.65-.26,.17-.16,.27-.39,.27-.62v-3.5c0-.23-.1-.45-.27-.62-.17-.16-.41-.26-.65-.26H7.92c-.24,0-.48,.09-.65,.26-.17,.16-.27,.39-.27,.62v3.5c0,.23,.1,.45,.27,.62,.17,.16,.41,.26,.65,.26Zm-.92,5.25h11v3.5H7v-3.5Zm12.83,0h9.17v3.5h-9.17v-3.5Z"/></g></svg>