<?xml version="1.0" encoding="UTF-8"?><svg id="Layer_1" xmlns="http://www.w3.org/2000/svg" viewBox="0 0 60 60"><defs><style>.cls-1{fill:#f2f2f2;}.cls-2{fill:#3a3a3a;}</style></defs><rect class="cls-1" width="60" height="60"/><path class="cls-2" d="M2,12.38H34c.53,0,1.04,.21,1.41,.57,.38,.37,.59,.87,.59,1.38v31.33c0,.52-.21,1.02-.59,1.38-.38,.37-.88,.57-1.41,.57H2c-.53,0-1.04-.21-1.41-.57-.38-.37-.59-.87-.59-1.38V14.33c0-.52,.21-1.02,.59-1.38,.38-.37,.88-.57,1.41-.57Zm2,3.92v27.42h28V16.29H4Zm8,3.92h7c1.86,0,3.64,.72,4.95,2.01,1.31,1.29,2.05,3.03,2.05,4.85s-.74,3.56-2.05,4.85c-1.31,1.29-3.09,2.01-4.95,2.01h-3v5.88h-4V20.21Zm4,3.92v5.88h3c.8,0,1.56-.31,2.12-.86,.56-.55,.88-1.3,.88-2.08s-.32-1.53-.88-2.08c-.56-.55-1.33-.86-2.12-.86h-3Z"/></svg>