<?xml version="1.0" encoding="UTF-8"?><svg id="Layer_1" xmlns="http://www.w3.org/2000/svg" viewBox="0 0 60.5 60"><defs><style>.cls-1{fill:#f2f2f2;}.cls-2{fill:#3a3a3a;}.cls-3{fill:none;stroke:#3a3a3a;}</style></defs><rect class="cls-1" x=".5" width="60" height="60"/><g><path class="cls-2" d="M30.39,44.76v-.68H6.61v3.74h-2.38v-3.74H1.69c-.32,0-.62-.13-.84-.35-.22-.22-.35-.53-.35-.84V14.87c0-.32,.13-.62,.35-.84s.53-.35,.84-.35H35.31c.32,0,.62,.13,.84,.35,.22,.22,.35,.53,.35,.84v28.02c0,.32-.13,.62-.35,.84s-.53,.35-.84,.35h-2.55v3.74h-2.38v-3.06Zm-27.51-3.74v.68h31.25V16.06H2.88v24.96Zm17.32-8.36l-.51,.13v5.69h-2.38v-5.68l-.51-.13c-1.6-.42-2.99-1.4-3.91-2.77-.92-1.37-1.32-3.02-1.11-4.66,.21-1.64,1-3.14,2.24-4.24,1.24-1.09,2.83-1.7,4.48-1.7,1.65,0,3.25,.6,4.49,1.69,1.24,1.09,2.04,2.6,2.25,4.24,.21,1.64-.19,3.3-1.12,4.67-.93,1.37-2.33,2.35-3.93,2.76Zm-1.7-2.16c1.17,0,2.29-.47,3.12-1.29s1.29-1.95,1.29-3.12-.47-2.29-1.29-3.12c-.83-.83-1.95-1.29-3.12-1.29s-2.29,.47-3.12,1.29c-.83,.83-1.29,1.95-1.29,3.12s.47,2.29,1.29,3.12c.83,.83,1.95,1.29,3.12,1.29Z"/><path class="cls-3" d="M30.39,44.76v-.68H6.61v3.74h-2.38v-3.74H1.69c-.32,0-.62-.13-.84-.35-.22-.22-.35-.53-.35-.84V14.87c0-.32,.13-.62,.35-.84s.53-.35,.84-.35H35.31c.32,0,.62,.13,.84,.35,.22,.22,.35,.53,.35,.84v28.02c0,.32-.13,.62-.35,.84s-.53,.35-.84,.35h-2.55v3.74h-2.38v-3.06Zm-27.51-3.74v.68h31.25V16.06H2.88v24.96Zm17.32-8.36l-.51,.13v5.69h-2.38v-5.68l-.51-.13c-1.6-.42-2.99-1.4-3.91-2.77-.92-1.37-1.32-3.02-1.11-4.66,.21-1.64,1-3.14,2.24-4.24,1.24-1.09,2.83-1.7,4.48-1.7,1.65,0,3.25,.6,4.49,1.69,1.24,1.09,2.04,2.6,2.25,4.24,.21,1.64-.19,3.3-1.12,4.67-.93,1.37-2.33,2.35-3.93,2.76Zm-1.7-2.16c1.17,0,2.29-.47,3.12-1.29s1.29-1.95,1.29-3.12-.47-2.29-1.29-3.12c-.83-.83-1.95-1.29-3.12-1.29s-2.29,.47-3.12,1.29c-.83,.83-1.29,1.95-1.29,3.12s.47,2.29,1.29,3.12c.83,.83,1.95,1.29,3.12,1.29Z"/><path class="cls-3" d="M30.39,44.76v-.68H6.61v3.74h-2.38v-3.74H1.69c-.32,0-.62-.13-.84-.35-.22-.22-.35-.53-.35-.84V14.87c0-.32,.13-.62,.35-.84s.53-.35,.84-.35H35.31c.32,0,.62,.13,.84,.35,.22,.22,.35,.53,.35,.84v28.02c0,.32-.13,.62-.35,.84s-.53,.35-.84,.35h-2.55v3.74h-2.38v-3.06Zm-27.51-3.74v.68h31.25V16.06H2.88v24.96Zm17.32-8.36l-.51,.13v5.69h-2.38v-5.68l-.51-.13c-1.6-.42-2.99-1.4-3.91-2.77-.92-1.37-1.32-3.02-1.11-4.66,.21-1.64,1-3.14,2.24-4.24,1.24-1.09,2.83-1.7,4.48-1.7,1.65,0,3.25,.6,4.49,1.69,1.24,1.09,2.04,2.6,2.25,4.24,.21,1.64-.19,3.3-1.12,4.67-.93,1.37-2.33,2.35-3.93,2.76Zm-1.7-2.16c1.17,0,2.29-.47,3.12-1.29s1.29-1.95,1.29-3.12-.47-2.29-1.29-3.12c-.83-.83-1.95-1.29-3.12-1.29s-2.29,.47-3.12,1.29c-.83,.83-1.29,1.95-1.29,3.12s.47,2.29,1.29,3.12c.83,.83,1.95,1.29,3.12,1.29Z"/></g></svg>