<?xml version="1.0" encoding="UTF-8"?><svg id="Layer_1" xmlns="http://www.w3.org/2000/svg" viewBox="0 0 60 60"><defs><style>.cls-1{fill:#f2f2f2;}.cls-2{fill:#3a3a3a;}</style></defs><rect class="cls-1" width="60" height="60"/><path class="cls-2" d="M12.3,13.82c-2.36,0-4.28,1.82-4.28,4.05v17.03l1.43-.97,1.43,.97V17.86c0-.74,.64-1.35,1.43-1.35h1.43v-2.7h-1.43Zm17.11,0c-2.36,0-4.28,1.82-4.28,4.05v1.35H12.3v2.7h12.83v2.7H12.3v2.7h12.83v2.7H12.3v2.7h12.83v2.19l1.43-.97,1.43,.97V17.86c0-.74,.64-1.35,1.43-1.35h1.43v-2.7h-1.43ZM9.45,36.36l-.89,.67s-1.43,1.05-3.34,1.05-3.43-1.05-3.43-1.05l-1.78,2.11s2.2,1.64,5.21,1.64c2.08,0,3.41-.65,4.23-1.14,.83,.48,2.22,1.14,4.32,1.14s3.41-.65,4.23-1.14c.83,.48,2.22,1.14,4.32,1.14s3.41-.65,4.23-1.14c.83,.48,2.22,1.14,4.32,1.14,3.01,0,5.12-1.64,5.12-1.64l-1.78-2.11s-1.43,1.05-3.34,1.05-3.43-1.05-3.43-1.05l-.89-.67-.89,.67s-1.43,1.05-3.34,1.05-3.43-1.05-3.43-1.05l-.89-.67-.89,.67s-1.43,1.05-3.34,1.05-3.43-1.05-3.43-1.05l-.89-.67Zm0,5.39l-.89,.67s-1.43,1.05-3.34,1.05-3.43-1.05-3.43-1.05l-1.78,2.11s2.2,1.64,5.21,1.64c2.08,0,3.41-.65,4.23-1.14,.83,.48,2.22,1.14,4.32,1.14s3.41-.65,4.23-1.14c.83,.48,2.22,1.14,4.32,1.14s3.41-.65,4.23-1.14c.83,.48,2.22,1.14,4.32,1.14,3.01,0,5.12-1.64,5.12-1.64l-1.78-2.11s-1.43,1.05-3.34,1.05-3.43-1.05-3.43-1.05l-.89-.67-.89,.67s-1.43,1.05-3.34,1.05-3.43-1.05-3.43-1.05l-.89-.67-.89,.67s-1.43,1.05-3.34,1.05-3.43-1.05-3.43-1.05l-.89-.67Z"/></svg>