<?xml version="1.0" encoding="UTF-8"?><svg id="Layer_1" xmlns="http://www.w3.org/2000/svg" viewBox="0 0 60.27 60"><defs><style>.cls-1{fill:#f2f2f2;}.cls-2{fill:#3a3a3a;}</style></defs><rect class="cls-1" x=".27" width="60" height="60"/><path class="cls-2" d="M32.4,12.76H3.6c-.95,0-1.87,.38-2.55,1.05-.68,.68-1.05,1.59-1.05,2.55v21.6c0,.95,.38,1.87,1.05,2.55,.68,.68,1.59,1.05,2.55,1.05H14.4v3.6h-5.4v3.6H27v-3.6h-5.4v-3.6h10.8c.95,0,1.87-.38,2.55-1.05,.68-.68,1.05-1.59,1.05-2.55V16.36c0-.95-.38-1.87-1.05-2.55-.68-.68-1.59-1.05-2.55-1.05Zm0,25.2H3.6V16.36h28.8v21.6Z"/></svg>