<?xml version="1.0" encoding="UTF-8"?><svg id="Layer_1" xmlns="http://www.w3.org/2000/svg" viewBox="0 0 60 60"><defs><style>.cls-1{fill:#f2f2f2;}.cls-2{fill:#3a3a3a;}</style></defs><rect class="cls-1" width="60" height="60"/><path class="cls-2" d="M10.94,34.81l-3.62-3.63c1.69-1.66,3.68-2.98,5.97-3.95,2.28-.97,4.74-1.46,7.39-1.46s5.1,.49,7.39,1.48c2.28,.99,4.27,2.32,5.96,4.01l-3.62,3.55c-1.26-1.24-2.73-2.21-4.39-2.91-1.67-.7-3.45-1.06-5.34-1.06s-3.68,.35-5.34,1.06c-1.67,.7-3.13,1.67-4.39,2.91Zm-7.32-7.18l-3.62-3.55c2.64-2.65,5.73-4.72,9.26-6.21,3.53-1.49,7.34-2.24,11.41-2.24s7.88,.75,11.41,2.24c3.53,1.49,6.62,3.56,9.26,6.21l-3.62,3.55c-2.21-2.17-4.77-3.86-7.69-5.09-2.92-1.22-6.04-1.84-9.37-1.84s-6.45,.61-9.37,1.84c-2.91,1.23-5.48,2.92-7.69,5.09Zm17.06,16.72l6.07-6c-.78-.76-1.68-1.36-2.71-1.8-1.03-.44-2.15-.65-3.36-.65s-2.33,.22-3.36,.65c-1.03,.44-1.94,1.04-2.71,1.8l6.07,6Z"/></svg>