<svg id="Layer_1" data-name="Layer 1" xmlns="http://www.w3.org/2000/svg" viewBox="0 0 603.32 218.81"><defs><style>.cls-1{fill:#a78328;}.cls-2{fill:#f77f12;}.cls-3{fill:#5c0605;}.cls-4{fill:#b08e37;}</style></defs><g id="Layer_2" data-name="Layer 2"><rect class="cls-1" width="603.32" height="218.81"/><polygon class="cls-2" points="249.84 160.22 255.54 171.78 268.3 173.63 259.07 182.63 261.25 195.34 249.84 189.34 238.43 195.34 240.61 182.63 231.37 173.63 244.13 171.78 249.84 160.22"/><polygon class="cls-2" points="306.39 160.41 312.09 171.97 324.85 173.83 315.62 182.83 317.8 195.53 306.39 189.53 294.98 195.53 297.16 182.83 287.93 173.83 300.68 171.97 306.39 160.41"/><polygon class="cls-2" points="362.99 160.41 368.7 171.97 381.45 173.83 372.22 182.83 374.4 195.53 362.99 189.53 351.58 195.53 353.76 182.83 344.53 173.83 357.29 171.97 362.99 160.41"/></g><g id="Layer_1-2" data-name="Layer 1"><path class="cls-3" d="M224.58,142.91c-2.22-2.36-5-3-8.18-3-9,.13-18-.08-26.92.11-3,.07-4.42-.56-3.93-3.8a33.8,33.8,0,0,0,0-4.93c0-1-.11-2.32,1.12-2.29,3.9.11,3.06-2.58,3.06-4.78q0-11.93-.09-23.86c0-1.14.51-2.54-1.09-3.21-1.13-.47-3.06.19-3.07-1.93a60.37,60.37,0,0,1,.22-8.61c.21-1.48,2.07-1,3.23-1,7.6,0,15.2-.28,22.78.09,4.28.21,7.51-.72,9.79-4.42a20.76,20.76,0,0,1,2.56-2.66c1.43,5.87,2.73,11.2,4,16.53.9,3.72,1.67,7.48,2.73,11.16.66,2.28,0,3-2.27,2.85-1.23-.11-2.49.06-3.73,0-2-.19-2.69.56-2.37,2.59.29,1.83.56,2.13,2.68,1.58,2.71-.7,5.74-.26,8.64-.24,2.65,0,1.46,1.71,1.1,2.84-2.86,9-5.77,18-8.66,27Z"/><path class="cls-3" d="M273.49,142.91c-2-2.32-4.61-3.1-7.67-3-7.86.13-15.73-.08-23.58.19-3.22.11-4.19-.94-3.81-3.93a45.05,45.05,0,0,0,.06-4.93c0-.81-.06-2.09.79-2.1,5-.06,3.29-3.79,3.34-6.23.14-7.4,0-14.8,0-22.2,0-1.81.28-3.73-2.47-3.75-1.51,0-1.62-1-1.77-2.23-1-8.63-.72-9,7.83-9,5.1,0,10.21.12,15.31,0,2.57-.08,3.5.84,3.28,3.33-.16,1.77,0,3.56,0,5.34,0,.94.16,2.32-1,2.38-3.86.18-2.85,2.93-2.88,5.06-.08,7.26.06,14.53-.16,21.79-.1,3.29,1.16,3.48,3.64,2.31,3.87-1.84,5.7-5.4,7.74-8.82.8-1.34.91-3.54,2.9-3.67a45.52,45.52,0,0,1,9.48.15c1.5.21.4,1.8.07,2.72-2.95,8.25-5.94,16.48-8.9,24.73a19.51,19.51,0,0,0-.47,2Z"/><path class="cls-2" d="M485.6,64.64c14.31,2.71,28.64,5.11,43.27,5.13a74.63,74.63,0,0,0,32.58-7c4.72-2.25,8.94-5.57,9.78-11.65.48-3.47-.89-5.78-3.55-6.92-4-1.72-8.36-2.66-12.79-.89-2.08.83-4.24,1.51-4.65,4.06a4,4,0,0,0,1.89,4.27,7,7,0,0,0,7.07-.19A10.78,10.78,0,0,0,561,49.78c.69-.65,1.38-1.5,2.45-.69A2.17,2.17,0,0,1,564,52a8.2,8.2,0,0,1-5.19,4.35c-3.72,1.15-9.15-.39-11.58-3.44-2.16-2.71-2.74-5.89-1-8.82,2.55-4.28,7.21-5.32,11.72-5.78A21.61,21.61,0,0,1,570.25,41c9.64,5.07,6.71,14.89,1.06,20.12-7.16,6.64-16.19,9.41-25.51,11.34-15,3.09-29.94,1.7-44.88-.65a290.76,290.76,0,0,1-42.29-9.92c-8.13-2.56-16.08-5.7-24-8.8-2.36-.92-3.29-.45-3.65,1.87-1,6.44-4.76,10.87-10.4,13.89-6.49,3.47-13.05,6.85-19.48,10.43-2.92,1.62-5,4.67-9,4.5-2.58-.11-5.07-.71-5.78-2.94s1.67-3.53,3.49-4.53c2-1.09,5.65-1.38,5.43-3.64s-3.95-2.08-6.13-2.89c-4.53-1.71-8.17-4.4-9-9.2-.86-5.1,1.92-8.75,6.28-11.43a21.41,21.41,0,0,1,23.14.55,7.23,7.23,0,0,1,3,7.59,6.13,6.13,0,0,1-5.38,5,20.72,20.72,0,0,1-7.28.27c-2.91-.53-5.14-2-5.48-4.73-.37-3,2.09-4.49,4.71-5.34.79-.26,1.61-.35,2.13-1.11-4.44-2.69-12.38-.4-14.59,4.14-1.62,3.32-.35,5.85,2.21,7.9,9,7.25,25,7.5,33.37-2.84,4.84-6,2.76-11.26-4.54-13.28-16.56-4.58-33.29-4.51-50-2a43.32,43.32,0,0,0-18.66,7,17.16,17.16,0,0,0,7.44-.41c4.12-.88,9,.81,10.21,3.54a6.84,6.84,0,0,1-1.11,8c-2.49,2.52-5.53,3.67-8.87,1.51a18.1,18.1,0,0,0-13.55-3c-8.87,1.52-15.65,5.41-18.89,14.21-.92,2.52-2.09,1-3,.18-5.28-4.54-10.63-9-15.69-13.8-2.59-2.44-4.2-3.24-7.19-.2-4.8,4.88-10.32,9-15.46,13.59-2.06,1.84-2.93,1.58-4-1.07-3-7.57-9.37-11-17-12.61-5-1-9.84-1-14.27,2.52-2.75,2.18-6.19,1.59-8.8-.53a6.48,6.48,0,0,1-2.13-7.77c1.3-3.3,4-4.78,7.43-4.87,3-.07,5.91,1.2,8.93.69.2-1.42-.66-1.48-1.63-1.88-22.4-9.4-45.16-8.44-68.1-2.4-3.84,1-5.23,4.12-3.79,8.33,2.68,7.85,9.18,10.86,16.6,12A23.16,23.16,0,0,0,215.33,63c3.45-2.87,2.74-7.39-.39-10.19-2.86-2.56-8.35-3.37-12.51-2.07.7,1.66,2.39,1.56,3.62,2.17,1.82.91,3.22,2.31,3.35,4.35a4.38,4.38,0,0,1-3.25,4.32c-4,1.25-8.1,2.13-12-.65-3.68-2.61-4.33-6.42-1.42-9.82,6.45-7.55,23.78-6.36,29.28,2,3.84,5.84,1.75,12.52-5,15.46a73,73,0,0,1-7.32,2.71c-2.22.71-2,1.6-.32,2.6a52.51,52.51,0,0,0,5.12,2.62c2,.9,3.19,2.31,2.67,4.51-.57,2.39-2.67,2.39-4.6,2.54-3.72.34-6.21-2-9.13-3.72-6.68-4-13.57-7.56-20.48-11.1a18.47,18.47,0,0,1-10-13.29c-.62-2.82-1.66-3.6-4.53-2.35-16.3,7.11-33.33,11.93-50.68,15.72a245.59,245.59,0,0,1-28.25,4.74c-16,1.58-31.87.55-46.89-5.73C37,65.5,31.73,62,28.82,56.18c-3.66-7.39-.76-12.75,6.28-15.93a21.37,21.37,0,0,1,17.39-.08c3.51,1.48,6,4.1,6,8.1,0,3.84-3.15,7-7.5,8.14-4,1.06-8.53-.26-10.46-3-1-1.34-1.5-3-.36-4.15,1.31-1.27,2.41.41,3.44,1.19,1.19.9,2.26,1.94,3.91,2.06,2.71.2,4.91-.51,6-3.19s-1-4-2.83-5.14c-4-2.56-12.22-2.22-15.71.59s-3.39,9,.7,13.17a31.8,31.8,0,0,0,13,7.54C62.49,70,76.64,70.61,91,68.83a266.93,266.93,0,0,0,26.66-4.26,15.34,15.34,0,0,0,2.36-.91,52.27,52.27,0,0,1-7.29-.45c-1.73-.38-3.48-.7-5.19-1.16a5.28,5.28,0,0,1-4.19-5c-.08-2,4.46-4.59,6.8-4.15,1.66.31,3.34.9,4.21,2.32,3.29,5.33,8.53,5.1,13.72,5,10.15-.27,19.53-3.53,28.75-7.39a40.16,40.16,0,0,1,6.08-2.48c8.31-1.94,13.92-8.12,20.71-12.47,11.27-7.22,24.06-9,37.25-8.7,4.21.11,8.28,1,11.6-3.55,2.2-3,6.77-3.14,10.5-1.57,2.52,1.07,4.58,3.22,3.85,6.12-.66,2.63.82,3.06,2.49,3.67C263.18,39,274.19,47.6,281.67,60.36c1.58,2.7,3.18,2.89,5.5,1.5q3.82-2.32,7.55-4.79c2.3-1.51,1.37-2.94-.3-4.15a57,57,0,0,0-11.28-6.67c-1.34-.56-2.86-1-2.56-2.67.81-4.32-.59-8.3-1.84-13.13A49.33,49.33,0,0,1,294.57,41a36.8,36.8,0,0,1,5.27,6.28c1.54,2.42,2.81,2.12,4.12.14,3.82-5.79,9.1-10,14.76-13.85a11.69,11.69,0,0,1,5.88-2.18A31.84,31.84,0,0,0,323,43.74c.09,1.73-1.64,2-2.83,2.53a66.55,66.55,0,0,0-10.62,6.32c-2.06,1.41-2.82,2.95-.13,4.56a10.13,10.13,0,0,1,1,.72c8.8,7,8.62,6.72,15-2.2A59.11,59.11,0,0,1,354,34c1.37-.5,3.49-.37,3.07-2.94-.58-3.49,1.11-5.73,4.27-7,3.72-1.54,7.7-1.36,10.08,1.64,2.95,3.73,6.28,3.61,10.32,3.47,13.43-.55,26.48,1.23,38.35,8.23A14.73,14.73,0,0,1,422.49,39c14.76,13.07,33,17.9,51.78,21.18,5.37.94,11.5,1.07,15.3-5.11,1.91-3.11,6.75-2.86,9.36-.25a4,4,0,0,1-.14,5.66,4.06,4.06,0,0,1-1.24.8c-2.22.93-4.47,2.08-7,2-1.67.79-3.65-.42-5.25.8-.06,0,0,.25,0,.35A1.25,1.25,0,0,0,485.6,64.64Z"/><path class="cls-3" d="M39.14,96c0-3.35-.89-6.75.65-10,7.81-.87,15.65-.16,23.47-.36,1.15,0,2.27.13,2.27,1.69v7.81c0,.48-.37,1.36-.61,1.38-5.29.36-3.41,4.34-3.48,7.06-.2,7.26-.09,14.52-.16,21.78,0,1.87-.19,3.63,2.6,3.5,1.48-.07,1.52,1.15,1.64,2.32.87,8.74.88,8.81-8,8.71-5.91-.06-11.83.44-17.73-.28-1.45-3.39-.76-6.89-.53-10.36,4.6-4.38,2.34-9.87,2.34-15,0-1.28-1.43-1.47-2.57-1.47a2.56,2.56,0,0,0-2.71,1.38c-1.38,2.93.09,12.45,2.37,15,.25,3.49,1,7-.53,10.4a186.51,186.51,0,0,1-25.68,0l-.12-9.91c4-.74,4.46-3.3,4.3-6.89-.32-7.2-.25-14.42,0-21.62.1-3.09-.76-4.63-4-4.52l-.17-10.52c5.42-1.24,10.89,0,16.34-.24,3.09-.16,6.2.1,9.31.17,1.56,3.22.59,6.61.67,9.92a1.57,1.57,0,0,1-1.51,1.2c1.07-.3,2.42,0,4.14,0,.17,0-.49-.66-.5-.11,0,.15-.1.13-.33.1"/><path class="cls-3" d="M326.66,110.5c0-15.79,9.4-25,26.37-25.7a26.6,26.6,0,0,1,5.78.14c4.33.77,8.51.7,12.51-1.3,1.94-1,2.84-.63,3.29,1.72,1.47,7.79,3.11,15.54,4.85,23.27.53,2.37-.23,3.31-2.49,3.47a9.94,9.94,0,0,0-1.2.28c-6.77,1.16-6.77,1.16-10.35-4.82-3.16-5.27-5.81-6.91-9.28-5.74s-5.29,5.6-4.51,10.89a16.78,16.78,0,0,0,3,8c4.6,6.08,11.8,5.36,15.19-1.45.79-1.59.69-4.55,3-4.33,3.36.32,6.66,1.55,9.9,2.63.86.28.34,1.48.08,2.23-2.36,6.72-4.79,13.41-7.07,20.15-.58,1.72-1.38,2.16-3,1.42-3.71-1.7-7.59-1.12-11.39-.6C342,143.44,326.65,130.11,326.66,110.5Z"/><path class="cls-3" d="M165.9,114.79v9.45c0,2.19-1,4.93,3,4.76,1,0,1,1,1.16,1.85,1.35,8.38.56,9.26-8,9.13-5-.07-9.94-.17-14.89.06-3,.14-3.92-1-3.61-3.75.19-1.63,0-3.29.07-4.93,0-1,0-2.37,1.1-2.33,3.7.15,2.9-2.38,2.91-4.42v-21c0-1,.69-2.45-.81-2.8-1.15-.26-1.92.87-2.61,1.72-.34.42-.56.93-.87,1.38-1.08,1.57-.66,4.49-2.44,4.91-2.88.67-6,.26-9,.26-1.67,0-1.59-1.06-1.32-2.26,1.73-7.6,3.51-15.19,5.12-22.81.49-2.33,1.6-1.88,2.77-.85,2.84,2.51,6.21,2.55,9.7,2.49,5.8-.08,11.59-.1,17.38,0,3.51.07,6.86,0,9.71-2.49,1.57-1.36,2.52-1.09,3,1.15q2.29,11,4.88,22c.52,2.2.07,3.11-2.31,2.85a13.63,13.63,0,0,0-3.72,0c-3.53.55-5.85-.45-6.33-4.31a4.83,4.83,0,0,0-.88-1.84c-.75-1.18-1.73-2.58-3.17-2.21S166,102.92,166,104c-.11,3.56,0,7.12,0,10.69Z"/><path class="cls-3" d="M406,139.62c-7.82,1-15.68.21-23.51.45a1.75,1.75,0,0,1-2-1.46,1.63,1.63,0,0,1,0-.54v-7.4a2.32,2.32,0,0,1,2-2.57,2.26,2.26,0,0,1,.52,0c2.46,0,3.29-1.6,4-3.49,3.08-8.5,6.51-16.9,9.09-25.54,1-3.3.1-7.17-.07-10.78-.09-1.92.53-2.69,2.55-2.67q13,.15,26.07.09c1.66,0,2.31.67,2.09,2.2-2,13.28,5,24.52,8.4,36.58.54,1.93,1.21,3.67,3.82,3.41,1.52-.16,1.8.9,1.74,2.13v.41c.64,9.65.64,9.71-9.16,9.63-8-.07-15.94-.29-23.91-.44-1.54-3-.5-6.29-.75-9.43,1.09-3,1.09-3-1.41-4.48-.39,1.55,1.44,2.25,1.31,3.6C406.49,132.75,407.71,136.29,406,139.62Z"/><path class="cls-3" d="M529.74,140.1c-8.55,0-17.11-.18-25.67-.07-2.3,0-3.4-.61-3-3,.56-3.31-1.84-7.45,2.79-9.69.37-.18.22-1.54.22-2.36V100.71c0-1.48.11-2.7-1.89-3.51-2.24-.91-1-3.42-1-5.18-.13-6.13,0-6.15,5.89-6.16h31.07c5.73,0,10.83,1.47,13.15,7.3s.68,11.08-3.7,15.39c-1.46,1.44-1.65,2.44-.55,4.15a68.1,68.1,0,0,1,6,12.17c.65,1.67,1.24,3.34,3.63,3.26,1.33,0,1.64,1,1.79,2.27,1.15,9.28.82,9.69-8.33,9.68Z"/><path class="cls-3" d="M465.43,86.1c5.93,0,11.86-.19,17.78,0,5.32.22,10.21,1.81,12.3,7.35s.79,10.76-3.24,15.19c-4.62,5.07-10.81,7.47-17.16,9.36-2.71.81-4,1.87-3.53,4.75.4,2.23-1.38,5.68,3.3,5.32,1.31-.1,1.45,1,1.45,2,0,2.6-.06,5.21,0,7.81.05,1.69-.86,2.07-2.31,2.06h-27.3c-1.38,0-2.79-.24-2.36-1.93.88-3.45-2.68-8.1,2.8-10.39.39-.16.37-1.52.38-2.32V100.64c0-1.53.08-2.76-2-3.44-2.49-.84-1.19-3.33-1.23-5-.16-6.35-.07-6.36,6.19-6.36,5,0,9.92.26,14.88.26Z"/><path class="cls-3" d="M71.2,112.44A28.26,28.26,0,0,1,99.91,84.65l.58,0c15.93.41,28.2,13,27.92,28.66A28.33,28.33,0,0,1,99.49,141C83,140.61,70.9,128.37,71.2,112.44Z"/><path class="cls-3" d="M576.79,140c-4,0-8-.08-12,0-2,.06-3.09-.47-2.9-2.74.16-2.05,0-4.11,0-6.16,0-.67,0-1.85.26-1.94,4.88-1.63,2.69-5.65,2.84-8.66.28-6,.13-12,.09-18.08,0-2.14.12-3.77-2.35-5.67s-1.07-6.45-.67-9.71c.09-1.33,3-1.11,4.59-1.15,7.3-.18,14.62,0,21.91-.31,3.4-.15,4.38,1.06,4,4.18a45,45,0,0,0,0,4.93c0,.79.31,2.06-.52,2.24-4.17.93-2.66,4.17-2.71,6.57-.16,6.57-.08,13.15,0,19.72,0,2.18,0,3.8,2.32,5.75,2.56,2.17,1.16,6.72.67,10.08-.3,2-3.08.94-4.74,1-3.58.14-7.16,0-10.75,0Z"/><path class="cls-4" d="M407.76,129q-.06,5.34-.1,10.68H406c0-3.84,0-7.67-.05-11.51C406.9,127.71,407.41,128.16,407.76,129Z"/><path class="cls-4" d="M38,96.55l.09-10.48h1.69l.1,10.5C39.26,97.44,38.63,97.44,38,96.55Z"/><path class="cls-4" d="M39.89,129.09l-.1,10.57H38.16c0-3.51,0-7-.08-10.52a1.09,1.09,0,0,1,1.5-.34A1.07,1.07,0,0,1,39.89,129.09Z"/><path class="cls-1" d="M222.78,85.27c1.42,5.94,2.88,11.88,4.22,17.84.24,1,1.49,2.69-.34,3.13-1.55.36-3.66,1-4.87-1-.82-1.32-1.42-2.78-2.16-4.27,2.93-.61,2.59,2.73,4.86,3.2-.93-4.1-1.81-8-2.74-12a1.44,1.44,0,0,0-1.53-1.36l-.18,0c-9.58,1-19.22-.1-30.22.67,4.67,1.94,4.91,4.73,4.87,7.94-.11,9.59,0,19.19,0,28.79,0,2.82-.14,5.48-3.33,7.18,8.88,0,17.76-.29,26.62.13,4,.19,5.82-.91,6.64-4.8s2.27-7.5,3-11.42c-1.55,2.19-2.94,4.5-4.68,6.53a17.8,17.8,0,0,1-15.82,6.35c-2.89-.25-4.68-1.48-4.69-4.58,0-6,0-12.06-.06-18.09,0-1.85.74-2.27,2.45-2.36,5-.25,9.07.84,10.94,6.06.12.33.49.57,1.66,1.86-.91-5.81-1.64-10.44-2.59-16.44-1.8,4.26-4.33,5.2-7.39,4.9-2.07-.21-5.28,1.65-5.1-2.91.18-4.75,1-5.85,5.3-5.9a22,22,0,0,1,6.09,1c2.68.72,4.07,2.07,4.26,5.12.25,4.22,1.24,8.38,1.87,12.58.18,1.18,1.47,2.94-.88,3.17-1.72.17-3.95,1-4.81-1.78a8.88,8.88,0,0,0-2.66-4.55,5.8,5.8,0,0,0-5.47-1.12c-1.88.6-.95,2.62-1,4-.09,4,.34,8,0,11.92s1.86,4.36,4.75,4.2c6.55-.36,10.91-4.06,14.16-9.37.57-.94,1-2,1.6-2.87,1.25-2,3.36-1.4,4.89-1,2.14.54.63,2.3.31,3.4-1.71,5.77-3.58,11.5-5.37,17.25-.5,1.62-1,2.87-3.06,1.46-1.55-1.09-3.42-.89-5.22-.89H191.44c-1.32,0-3.42.74-3.2-1.85.12-1.52-1.09-3.9,2-4,1.74,0,2-1.26,2-2.52q.07-16,.06-32.08c0-1.3-.39-2.31-2.09-2.46-2.87-.26-1.84-2.6-1.87-4.17,0-2.19,1.8-1.63,3.06-1.63,7.59,0,15.18-.06,22.77,0,3.14,0,6.19.11,7.66-3.8Z"/><path class="cls-4" d="M221,119.38a15.31,15.31,0,0,1-5.07,5.33c-2.29,1.36-5,2.79-7.37,1.55-1.73-.92-.51-3.78-.61-5.77-.11-2.19,0-4.38,0-6.57,0-.62-.26-1.48.7-1.67.77-.15,1.22.47,1.67,1a.72.72,0,0,1,.2.36C211.43,119.11,215.07,120.65,221,119.38Z"/><path class="cls-1" d="M251.66,88.56c2.35,0,4.7,0,7,0,1.36,0,3.39-.68,3.17,1.88-.13,1.54,1,3.87-2,4-2.05.06-1.94,1.54-1.94,2.94,0,9.73.1,19.46,0,29.2,0,2.86,1.46,3.08,3.72,2.76,6.38-.91,9.65-5.48,12.36-10.51,1.23-2.27,2.63-3.16,5.17-3,1.93.14,2.43.64,1.75,2.49-2.31,6.29-4.52,12.63-6.82,18.94-.29.8-.55,2.21-1.91,1.4-4.14-2.44-8.64-1.11-13-1.33-5.09-.25-10.21-.06-15.31-.09-1.32,0-3.07.38-2.77-1.87.21-1.48-1.18-3.89,2-3.93,2.06,0,2-1.62,2-2.92q.13-15.63.12-31.26c0-1.19-.06-2.73-1.75-2.79-3.28-.11-2.29-2.49-2.3-4.19,0-2.53,2.07-1.62,3.38-1.69,2.34-.12,4.69,0,7,0Z"/><path class="cls-1" d="M257.66,46.64a107,107,0,0,0-35.17-7.2c-11.73-.5-23.32,1.16-34.94,2.53,16.2-10.68,54.36-8.4,71.19,3.6C258.94,46.44,258.63,46.85,257.66,46.64Z"/><path class="cls-1" d="M414.72,41.83c-12.77-1.73-24.92-3.34-37.2-2.29A105,105,0,0,0,342,48.68C351.9,34.78,400.78,30.26,414.72,41.83Z"/><path class="cls-1" d="M31.94,120.22v7.4c0,1.95-.25,3.66,2.74,4,2.24.24.92,2.68,1.14,4.12.25,1.7-1.13,1.52-2.21,1.52H17.46c-1.46,0-2.52-.35-2.26-2,.2-1.32-.91-3.46,1.45-3.62s2.54-1.73,2.55-3.38c.07-10.15.08-20.3.09-30.45,0-1.68,0-3.2-2.47-3.43s-1.48-2.49-1.6-4c-.16-1.82,1.22-1.79,2.52-1.8,5.1,0,10.21-.07,15.32-.08,1.3,0,3.11-.42,2.76,1.83-.23,1.47,1.35,3.85-1.75,4.14S32.14,97.21,32,98.86c-.19,2.17,1.57,1.76,2.9,1.78,2.35,0,4.7.18,7,0,1.4-.11,3.76,1.15,3.92-1.52.11-1.85,1.31-4.47-2.46-4.91-2.35-.28-1.12-2.68-1.28-4.14-.19-1.65,1.14-1.53,2.25-1.53H60.06c1.32,0,2.67,0,2.55,1.79-.1,1.46.94,3.71-1.6,4s-2.48,1.82-2.48,3.46q0,15.22.13,30.45c0,1.28-.22,3.09,1.77,3.14,3.35.08,2.27,2.48,2.31,4.15.06,2.53-2,1.71-3.34,1.73-5,.08-9.94,0-14.91,0-1.19,0-2.8.31-2.52-1.66.22-1.49-1.3-3.93,1.76-4.12,2-.13,2.1-1.32,2.1-2.8,0-5.76,0-11.52.13-17.28,0-1.72-.49-2.62-2.34-2.37a1.41,1.41,0,0,1-.41,0C31.92,108.5,31.92,108.5,31.94,120.22Z"/><path class="cls-4" d="M39.89,129.09H38.08c-2.39,0-3.67-.78-3.47-3.58a95.25,95.25,0,0,0,0-11.46c-.12-2.61,1.58-2.61,3.17-2.2,1.84.52,5.18-2.1,5.35,2.15.16,3.82-.13,7.66.14,11.47C43.49,128.18,42.39,129.15,39.89,129.09Z"/><path class="cls-1" d="M354.75,87.53c5.79-.12,10.89,1.7,15.87-.67,1.22-.59,1.5.57,1.72,1.6,1.26,6.16,2.59,12.31,3.89,18.46.28,1.33.23,2.7-1.53,2.66s-4,2-5.52-.75a52.49,52.49,0,0,0-3.7-5.93c-2.17-2.91-5-4.65-8.87-4-4.06.73-6.26,3.39-7.19,7.08a18.85,18.85,0,0,0,2.84,16.09c5.49,7.71,15.21,7,19.82-1.33.87-1.59,1.37-3.11,3.91-2.48,3,.74,4.18,1.54,2.66,4.85-1.88,4.1-3.1,8.49-4.59,12.76-.46,1.32-.82,2.8-2.77,2-3.43-1.39-6.83-.13-10.19.22-24.8,2.66-36.1-18.64-30.14-37,2.09-6.43,6.94-10.44,13.49-12.25A33.24,33.24,0,0,1,354.75,87.53Z"/><path class="cls-1" d="M163.13,114c0,4.24-.08,8.49,0,12.73.06,2.16-.65,4.71,3.18,5,1.91.12.82,2.5,1,3.86.26,1.6-.92,1.7-2.1,1.7-5.52,0-11,0-16.55,0-1.42,0-2.62-.18-2.24-1.93.29-1.35-1.26-3.74,1.53-3.84,2.59-.1,2.44-1.73,2.46-3.35.08-9.59.08-19.18.18-28.77,0-2.11-.81-2.6-2.79-2.15a10.21,10.21,0,0,0-7.56,6.36c-.5,1.21-.57,2.74-2.48,2.81-2.49.08-4.73.44-3.53-3.5,1.39-4.56,2.16-9.31,3.27-14,.21-.9.15-2.8,1.81-1.76,3.76,2.34,7.8,1.17,11.71,1.31,5.65.2,11.31,0,17,0,1,0,2.14.34,2.86-.08,5.48-3.17,5.54,1,6.24,4.39s1.51,6.68,2.09,10c.19,1.1,1.84,2.9-.43,3.33-1.77.34-4.21,1.2-5.16-1.76a10,10,0,0,0-6.51-6.9c-2.86-1-4.36-.81-4.16,2.83.26,4.51.07,9,.07,13.57Z"/><path class="cls-1" d="M424.14,137.26c-3.45,0-6.91.07-10.35,0-1.22,0-3.26.76-3.34-1.25-.07-1.77-1.48-4.29,1.41-5.31,1.23-.44,1.84-1,1.67-2.34-.36-3.08-7.17-8.45-10-7.24s-2.4,4.61-3.33,7.07c-.47,1.22-.32,2.18,1.57,2.49,3,.49,1.34,3.06,1.57,4.69.3,2.18-1.5,1.85-2.82,1.85-4.69,0-9.38.05-14.07,0-1.19,0-3.17.7-2.94-1.63.17-1.68-1.28-4.08,1.53-4.84s3.85-2.83,4.72-5.24q5-13.71,10-27.39a3.89,3.89,0,0,0-.27-3.78c-2-3.8-.68-5.77,3.57-5.79,5.52,0,11-.06,16.56-.07,4.55,0,6,1.92,3.86,5.89a4.11,4.11,0,0,0-.22,3.75c3.16,9.34,6.22,18.71,9.45,28,.67,1.91,1,4,3.94,4.67,2.36.52.82,3.29,1,5s-1.36,1.33-2.38,1.34H424.1Z"/><path class="cls-4" d="M407.76,129l-1.77-.84c-.83-.6-2.86.07-2.28-2,.23-.8.47-2,1.8-1.68,1.71.47,3.6,1.14,4.31,2.76C410.42,128.57,408.42,128.28,407.76,129Z"/><path class="cls-1" d="M529.49,137.19c-7.46,0-14.91.11-22.36,0-1.17,0-3.21.89-3.3-1.21-.08-1.71-1.32-4.2,1-5.14s1.93-2.51,1.94-4c.1-9.46.09-18.92.07-28.38,0-1.31.15-2.64-1.67-3.31-2.75-1-1.38-3.55-1.34-5.35,0-2.07,2.08-1.28,3.28-1.29,9.93-.07,19.87,0,29.8,0h1.66c4.37.22,8.25,1.44,10,5.87a9.87,9.87,0,0,1-3,11.93c-3.65,2.89-3.11,4.94-.9,8.29,2.31,3.51,3.76,7.58,5.63,11.39.94,1.9,1.4,4,4,4.88,2.28.84,1,3.39,1,5.13,0,1.93-1.88,1.12-2.92,1.13-7.59.08-15.18,0-22.77,0Z"/><path class="cls-1" d="M466.59,88.73c5.52,0,11-.21,16.55.07,4.09.21,8.1,1.43,9.71,5.75,1.66,4.47.58,8.63-2.66,12.18-4.33,4.77-10,7.43-16.08,8.75-4.52,1-5.85,3.06-5.22,7.25a27,27,0,0,1,0,4.92c-.06,1.39.25,2.59,1.83,2.66,3.85.16,2.84,3,2.8,5.07-.06,3.09-2.6,1.78-4.06,1.82-6.34.14-12.69.1-19,0-1.18,0-3.17.9-3.3-1.25-.1-1.74-1.23-4.22,1-5.15s2-2.46,2-4q.07-14,0-28c0-1.55.17-3-2.06-3.86s-1.06-3.41-.94-5.18c.14-2.12,2.09-1.29,3.29-1.31,5.38-.08,10.76.23,16.13.23Z"/><path class="cls-1" d="M98.67,138.22c-15-1-25.74-12.58-24.6-26.52,1.21-14.82,13-25.09,27.59-24.1,13.92.94,25,13.14,24.08,26.45C124.7,128.62,112.87,139.19,98.67,138.22Z"/><path class="cls-1" d="M567.77,112.63c0-4.38.05-8.76,0-13.14,0-1.79.4-3.55-2.19-4.62-1.93-.8-1-3.47-.77-5.26s2-1.1,3.06-1.11q9.3,0,18.6.08c1.25,0,3.17-.63,3.21,1.46,0,1.71,1.26,4.21-1.33,5-1.94.57-1.8,1.72-1.8,3.07v29.57c0,1.19-.26,2.54,1.42,3,3.1.85,1.76,3.41,1.68,5.15-.11,2.35-2.33,1.34-3.62,1.36-6.06.13-12.12.12-18.18.07-1.09,0-2.88.68-3-1.11s-1.24-4.31.88-5.2c2.4-1,2-2.66,2.08-4.32C567.83,121.94,567.77,117.28,567.77,112.63Z"/><path class="cls-3" d="M277,121.22c-1.52,4.35-3,8.71-4.58,13.05a1.72,1.72,0,0,1-1.81,1.3c-8.77,0-17.54,0-26.73-.44,4-1.45,3.73-4.58,3.73-7.52,0-9.45-.1-18.9-.07-28.35,0-3.09-.2-6-3.55-7.64h14.8c-3.17,1.47-3.45,4-3.45,6.9,0,9.45-.16,18.9-.09,28.35,0,4.66,1.41,5.72,6.08,5.47A14.4,14.4,0,0,0,272,126.77c1.55-1.87,2.89-3.93,4.32-5.9Z"/><path class="cls-3" d="M32.57,135.22H17.22c5-2,4.35-5.66,4.35-9,0-9.46-.07-18.92,0-28.38,0-2.74-.51-5-3.7-6H33.26c-5.42,2.39-3.75,6.73-4.08,10.4-.11,1.31.88,1.54,1.92,1.54,5.11,0,10.21-.06,15.32,0,1.37,0,2.14-.43,2-1.88C48,98.35,49.79,94,45,91.66H59.39c-3,1.65-3.42,4.41-3.44,7.25-.06,10-.1,20-.06,30,0,2.54.63,4.89,3.43,6.25H44.93c4.29-2.55,3.56-6.72,3.56-10.65,0-4.79-.17-9.59-.07-14.38,0-2.23-.44-3.16-2.94-3.06-4.41.18-8.84.08-13.24-.16-2.67-.15-3.23.94-3.16,3.35.16,5.89,0,11.79.12,17.68C29.27,130.74,28.78,133.91,32.57,135.22Z"/><path class="cls-3" d="M376.49,121.7c-1.56,4.43-3.08,8.75-4.59,13.07a1.16,1.16,0,0,1-1.21.9c-6.84-.85-13.62,1.63-20.54-.11-18.29-4.58-21.48-23.8-16.28-34.88,2.67-5.7,7.77-8.31,13.71-9.44a41.37,41.37,0,0,1,15.21,0c2.49.46,5.48-2.16,7.2.51,1.25,1.93,1.19,4.7,1.71,7.09.46,2.14,1,4.27,1.35,6.43.14.83,1,2-.4,2.5s-1.87-.69-2.41-1.59a26.25,26.25,0,0,0-4.95-6.52,11,11,0,0,0-15.54.62,8.62,8.62,0,0,0-.82,1c-6.19,8.14-2.07,24,7.31,28.07,6.24,2.73,12.72.79,16.7-4.92.68-1,.84-2.38,2.16-2.87C375.33,121.44,375.63,121.6,376.49,121.7Z"/><path class="cls-3" d="M136.49,104.44c1-4.29,1.87-8,2.62-11.72.29-1.48,1.14-1.54,2.37-1.53H172.1c1.33,0,2,.18,2.23,1.6.74,3.72,1.65,7.41,2.09,11.46-2.54-5.83-6.93-8.7-13-9.25-2.13-.19-2.94.27-2.93,2.55.07,10.14-.08,20.28,0,30.42,0,2.69-.11,5.73,3.49,7.11H149c4.41-1.83,3.93-5.28,3.91-8.65-.06-9.19-.21-18.38.06-27.55.11-3.78-1.14-4.35-4.5-3.61C143.88,96.23,143.83,96.05,136.49,104.44Z"/><path class="cls-3" d="M423.93,135.44h-9.51c-.68,0-1.51,0-1.61-.86a1.65,1.65,0,0,1,.78-1.24c4-2.24,2.75-5.3,1-8-2.79-4.17-7.26-5.61-12-6.27-.27,0-.65-.14-.81,0-2.85,2.34-2.94,5.92-4,9-.57,1.74-1.06,3.89,1.31,5,.75.36,1.74.53,1.52,1.55s-1.27.81-2.06.82H387.33c-.73,0-1.48-.09-1.67-.86s.44-1.22,1.11-1.48c3-1.17,4.14-3.85,5.14-6.58,3.45-9.37,6.87-18.76,10.34-28.12.44-1.19,1.05-2.58.38-3.56-3-4.47.64-3.5,2.85-3.51,4.41,0,8.82.08,13.23.11,2.18,0,3.52.5,1.48,2.7-1.24,1.34-.43,2.65,0,3.83,3.48,10.23,7.05,20.43,10.62,30.63.63,1.8,1.19,3.71,3.25,4.49.75.28,1.22.79,1,1.52-.26,1.09-1.29.79-2,.8H424Z"/><path class="cls-3" d="M506.05,92.34c1.46-1.39,3.08-1,4.5-1,8.83,0,17.67-.08,26.5.17,3.78.1,8,0,9.39,4.94,1.12,3.88-.54,7.83-5.12,10.66-2.85,1.76-3.47,3-1.11,5.84-10.32-12.48-2.17-8.49,7.93,14.83.87,2,1.48,4.18,3.68,5.27.69.34,1.1.86.86,1.62s-1.07.73-1.73.73H534.39c-1.75,0-3.06-.55-1.21-2.28,1.61-1.52,1.45-3.15.89-4.89a34.4,34.4,0,0,0-7.25-12.31c-.76-.86-1.56-1.61-2.84-1.06s-1,1.52-1,2.47c0,4,.07,8,.1,11.93a5,5,0,0,0,.9,3.09c.61.82,2.45.9,1.91,2.3s-2.18.75-3.31.77c-4.83.07-9.67,0-14.5,0-.65,0-1.46.16-1.75-.68s.21-1.25.87-1.6c2.12-1.1,2-3.13,2-5,0-9.88-.1-19.76.11-29.63C509.37,95.64,507.59,94.13,506.05,92.34Z"/><path class="cls-3" d="M467.49,91.44c4.21.09,9.87-.25,15.5.46,3,.39,6.33.76,7.43,4.17a9.21,9.21,0,0,1-2.76,10.12c-4.82,4.38-10.76,6.65-17,8-3.44.75-5,2.09-4.49,5.71a49.28,49.28,0,0,1,.08,7.39c-.05,2.72,0,5.33,3.46,6a1.07,1.07,0,0,1,.94,1.16c-.08.91-.86.89-1.55.9H451.39c-.71,0-1.47,0-1.7-.8s.38-1.21,1-1.56c1.7-1,1.75-2.63,1.75-4.31V98.28c0-1.8,0-3.62-1.89-4.66-.63-.35-1.27-.92-.77-1.57a2.61,2.61,0,0,1,1.83-.63C456.49,91.44,461.27,91.44,467.49,91.44Z"/><path class="cls-3" d="M122.75,113.61c-.08,12.94-10.08,22.61-23.31,22.54s-23.2-10-23.18-22.8S86.63,90.44,100,90.56C113.11,90.64,122.82,100.44,122.75,113.61Z"/><path class="cls-3" d="M576.72,135.44a27.4,27.4,0,0,1-4.53-.1c-2-.34-8.17,1.86-2.59-3.77.47-.48.43-1.56.43-2.36V97.62a4.49,4.49,0,0,0-.81-3.09c-.65-.8-2.46-1-1.94-2.27s2.18-.76,3.34-.78c4.67-.11,9.35-.12,14-.16.84,0,1.8-.07,2.18.8s-.58,1.38-1.22,1.81c-1.43,1-1.62,2.4-1.62,4v31.19c0,1.6.26,3,1.77,3.86.73.42,1.5.93,1,1.9s-1.45.56-2.22.57h-7.79Z"/><path class="cls-1" d="M407.38,102.22c1.51,4.87,2.89,9.34,4.4,14.22-2.85-.69-4.92-2.12-7.38-2.29-1.13-.08-1.79-.67-1.22-1.93C404.61,109.05,405.12,105.49,407.38,102.22Z"/><path class="cls-1" d="M523,103.08a20.36,20.36,0,0,0,0-2.47c-.42-3.65,1.27-4.85,4.83-4.69s5.47,1.43,5.27,5.18c-.2,3.93-4.19,7.91-8.36,8.45-1.42.18-1.71-.39-1.72-1.53Z"/><path class="cls-1" d="M466.31,110.38c0-4,.15-7,0-10-.22-3.52,1.49-4.62,4.72-4.44s5.74,1,5.76,4.85a6.66,6.66,0,0,1-3.7,6C471.08,108,469,109,466.31,110.38Z"/><path class="cls-1" d="M84.36,111A20.14,20.14,0,0,1,87,101a12.84,12.84,0,0,1,17.41-5.19,8.13,8.13,0,0,1,.81.47c9.33,5.5,13,20.75,7.19,29.88a13.15,13.15,0,0,1-18,4.51A13.56,13.56,0,0,1,92,128.85C86.71,124.06,84.49,117.86,84.36,111Z"/></g></svg>