<svg id="Layer_1" data-name="Layer 1" xmlns="http://www.w3.org/2000/svg" viewBox="0 0 440 256.41"><defs><style>.cls-1{fill:silver;}.cls-2{fill:#fff;}.cls-3{fill:#1f4395;}.cls-4{fill:#d52b1e;}</style></defs><path class="cls-1" d="M0,12.06a507.69,507.69,0,0,1,220,0,507.69,507.69,0,0,0,220,0V244.35a507.69,507.69,0,0,1-220,0,507.69,507.69,0,0,0-220,0Z"/><path class="cls-2" d="M11.58,21A456,456,0,0,1,220,21a456.27,456.27,0,0,0,208.42,0V92.47L324.21,137.14H115.79L11.58,92.47Z"/><path class="cls-3" d="M11.58,92.47a456.27,456.27,0,0,1,208.42,0,456.27,456.27,0,0,0,208.42,0v71.47L324.21,208.61H115.79L11.58,163.94Z"/><path class="cls-4" d="M11.58,163.94a456.27,456.27,0,0,1,208.42,0,456.27,456.27,0,0,0,208.42,0v71.47a456.27,456.27,0,0,1-208.42,0,456.27,456.27,0,0,0-208.42,0Z"/></svg>