<svg width="55" height="55" viewBox="0 0 55 55" fill="none" xmlns="http://www.w3.org/2000/svg">
<path d="M51.5625 48.125C51.5625 48.125 55 48.125 55 44.6875C55 41.25 51.5625 30.9375 37.8125 30.9375C24.0625 30.9375 20.625 41.25 20.625 44.6875C20.625 48.125 24.0625 48.125 24.0625 48.125H51.5625ZM24.1381 44.6875C24.1127 44.684 24.0875 44.6794 24.0625 44.6737C24.0659 43.7663 24.6366 41.1331 26.675 38.7612C28.5725 36.5372 31.9069 34.375 37.8125 34.375C43.7147 34.375 47.0491 36.5406 48.95 38.7612C50.9884 41.1331 51.5556 43.7697 51.5625 44.6737L51.535 44.6806C51.519 44.6833 51.503 44.6856 51.4869 44.6875H24.1381ZM37.8125 24.0625C39.6359 24.0625 41.3845 23.3382 42.6739 22.0489C43.9632 20.7595 44.6875 19.0109 44.6875 17.1875C44.6875 15.3641 43.9632 13.6155 42.6739 12.3261C41.3845 11.0368 39.6359 10.3125 37.8125 10.3125C35.9891 10.3125 34.2405 11.0368 32.9511 12.3261C31.6618 13.6155 30.9375 15.3641 30.9375 17.1875C30.9375 19.0109 31.6618 20.7595 32.9511 22.0489C34.2405 23.3382 35.9891 24.0625 37.8125 24.0625ZM48.125 17.1875C48.125 18.5418 47.8583 19.8828 47.34 21.1339C46.8218 22.3851 46.0621 23.5219 45.1045 24.4795C44.1469 25.4371 43.0101 26.1968 41.7589 26.715C40.5078 27.2333 39.1668 27.5 37.8125 27.5C36.4582 27.5 35.1172 27.2333 33.8661 26.715C32.6149 26.1968 31.4781 25.4371 30.5205 24.4795C29.5629 23.5219 28.8032 22.3851 28.285 21.1339C27.7667 19.8828 27.5 18.5418 27.5 17.1875C27.5 14.4525 28.5865 11.8294 30.5205 9.89546C32.4544 7.96149 35.0775 6.875 37.8125 6.875C40.5475 6.875 43.1706 7.96149 45.1045 9.89546C47.0385 11.8294 48.125 14.4525 48.125 17.1875ZM23.8425 31.9C22.4674 31.467 21.05 31.1824 19.6144 31.0509C18.8077 30.9742 17.9978 30.9364 17.1875 30.9375C3.4375 30.9375 0 41.25 0 44.6875C0 46.9803 1.14469 48.125 3.4375 48.125H17.93C17.4204 47.0519 17.1663 45.8753 17.1875 44.6875C17.1875 41.2156 18.4834 37.6681 20.9344 34.705C21.7697 33.6944 22.7425 32.7491 23.8425 31.9ZM16.9125 34.375C14.878 37.4319 13.779 41.0156 13.75 44.6875H3.4375C3.4375 43.7938 4.00125 41.1469 6.05 38.7612C7.92344 36.575 11.1788 34.4438 16.9125 34.3784V34.375ZM5.15625 18.9062C5.15625 16.1712 6.24274 13.5482 8.17671 11.6142C10.1107 9.68024 12.7337 8.59375 15.4688 8.59375C18.2038 8.59375 20.8268 9.68024 22.7608 11.6142C24.6948 13.5482 25.7812 16.1712 25.7812 18.9062C25.7812 21.6413 24.6948 24.2643 22.7608 26.1983C20.8268 28.1323 18.2038 29.2188 15.4688 29.2188C12.7337 29.2188 10.1107 28.1323 8.17671 26.1983C6.24274 24.2643 5.15625 21.6413 5.15625 18.9062ZM15.4688 12.0312C13.6454 12.0312 11.8967 12.7556 10.6074 14.0449C9.31808 15.3342 8.59375 17.0829 8.59375 18.9062C8.59375 20.7296 9.31808 22.4783 10.6074 23.7676C11.8967 25.0569 13.6454 25.7812 15.4688 25.7812C17.2921 25.7812 19.0408 25.0569 20.3301 23.7676C21.6194 22.4783 22.3438 20.7296 22.3438 18.9062C22.3438 17.0829 21.6194 15.3342 20.3301 14.0449C19.0408 12.7556 17.2921 12.0312 15.4688 12.0312Z" fill="black"/>
</svg>
