<svg width="55" height="55" viewBox="0 0 55 55" fill="none" xmlns="http://www.w3.org/2000/svg">
<path d="M41.25 33.958L44.6875 37.3955V25.7812H41.25V33.958ZM47.2656 25.7812H50.7031V38.6719H47.2656V25.7812ZM39.0426 12.252C38.0729 13.3896 37.4997 14.8118 37.4096 16.3038C37.3196 17.7959 37.7174 19.2768 38.5432 20.5227L39.1843 21.4844H43.3157L41.4036 18.6162C40.9915 17.9945 40.793 17.2556 40.8379 16.5111C40.8829 15.7665 41.1689 15.0569 41.6528 14.4893C42.6531 13.3259 43.2337 11.8602 43.3015 10.3274C43.3693 8.79457 42.9203 7.2834 42.0266 6.03625L41.3979 5.15625H37.4688L37.2732 5.2959L39.2292 8.03408C39.6751 8.6564 39.8991 9.41046 39.8653 10.1753C39.8315 10.9402 39.5417 11.6715 39.0426 12.252ZM46.777 12.252C45.8073 13.3896 45.2341 14.8118 45.144 16.3038C45.0539 17.7959 45.4518 19.2768 46.2776 20.5227L46.9187 21.4844H51.0501L49.138 18.6162C48.7259 17.9945 48.5274 17.2556 48.5723 16.5111C48.6173 15.7665 48.9033 15.0569 49.3872 14.4893C50.3875 13.3259 50.9681 11.8602 51.0359 10.3274C51.1036 8.79457 50.6547 7.2834 49.7609 6.03625L49.1323 5.15625H45.2031L45.0076 5.2959L46.9636 8.03408C47.4095 8.6564 47.6335 9.41046 47.5997 10.1753C47.5658 10.9402 47.2761 11.6715 46.777 12.252ZM28.2119 25.7812L4.14938 1.71875H1.71875V4.14938L23.3506 25.7812H1.71875V38.6719H36.2412L50.8506 53.2812H53.2812V50.8506L28.2119 25.7812ZM5.15625 35.2344V29.2188H26.7881L32.8037 35.2344H5.15625Z" fill="black"/>
</svg>
