<?xml version="1.0" encoding="UTF-8"?><svg xmlns="http://www.w3.org/2000/svg" xmlns:xlink="http://www.w3.org/1999/xlink" viewBox="0 0 1190.55 841.89"><defs><style>.cls-1{fill:#fff0e1;}.cls-2,.cls-3{fill:#ffcd02;}.cls-4{fill:none;stroke:#231f20;stroke-miterlimit:10;stroke-width:2px;}.cls-3{opacity:.26;}</style></defs><g id="Layer_1"><rect class="cls-1" width="1190.55" height="841.89"/><circle class="cls-3" cx="45.1" cy="79.65" r="14.79"/><circle class="cls-3" cx="149.77" cy="79.65" r="14.79"/><circle class="cls-3" cx="255.08" cy="79.65" r="14.79"/><circle class="cls-3" cx="205.2" cy="19.11" r="14.79"/><circle class="cls-3" cx="99.46" cy="19.11" r="14.79"/><circle class="cls-3" cx="99.46" cy="152.56" r="14.79"/><circle class="cls-3" cx="205.2" cy="152.56" r="14.79"/><circle class="cls-3" cx="301.98" cy="152.56" r="14.79"/><circle class="cls-3" cx="352.38" cy="79.65" r="14.79"/><circle class="cls-3" cx="352.38" cy="213.1" r="14.79"/><circle class="cls-3" cx="352.38" cy="330.29" r="14.79"/><circle class="cls-3" cx="255.08" cy="330.29" r="14.79"/><circle class="cls-3" cx="149.77" cy="330.29" r="14.79"/><circle class="cls-3" cx="45.1" cy="330.29" r="14.79"/><circle class="cls-3" cx="99.46" cy="270.18" r="14.79"/><circle class="cls-3" cx="205.2" cy="270.18" r="14.79"/><circle class="cls-3" cx="301.98" cy="270.18" r="14.79"/><circle class="cls-3" cx="301.98" cy="400.12" r="14.79"/><circle class="cls-3" cx="205.2" cy="400.12" r="14.79"/><circle class="cls-3" cx="99.46" cy="400.12" r="14.79"/><circle class="cls-3" cx="99.46" cy="517.95" r="14.79"/><circle class="cls-3" cx="205.2" cy="517.95" r="14.79"/><circle class="cls-3" cx="301.98" cy="517.95" r="14.79"/><circle class="cls-3" cx="352.38" cy="460.31" r="14.79"/><circle class="cls-3" cx="255.08" cy="460.31" r="14.79"/><circle class="cls-3" cx="149.77" cy="460.31" r="14.79"/><circle class="cls-3" cx="45.1" cy="460.31" r="14.79"/><circle class="cls-3" cx="45.1" cy="577.49" r="14.79"/><circle class="cls-3" cx="149.77" cy="577.49" r="14.79"/><circle class="cls-3" cx="255.08" cy="577.49" r="14.79"/><circle class="cls-3" cx="352.38" cy="577.49" r="14.79"/><circle class="cls-3" cx="352.38" cy="701.36" r="14.79"/><circle class="cls-3" cx="255.08" cy="701.36" r="14.79"/><circle class="cls-3" cx="149.77" cy="701.36" r="14.79"/><circle class="cls-3" cx="45.1" cy="701.36" r="14.79"/><circle class="cls-3" cx="99.46" cy="641.25" r="14.79"/><circle class="cls-3" cx="205.2" cy="641.25" r="14.79"/><circle class="cls-3" cx="301.98" cy="641.25" r="14.79"/><circle class="cls-3" cx="301.98" cy="758.44" r="14.79"/><circle class="cls-3" cx="205.2" cy="758.44" r="14.79"/><circle class="cls-3" cx="99.46" cy="758.44" r="14.79"/><circle class="cls-3" cx="45.1" cy="818.24" r="14.79"/><circle class="cls-3" cx="149.77" cy="818.24" r="14.79"/><circle class="cls-3" cx="255.08" cy="818.24" r="14.79"/><circle class="cls-3" cx="352.38" cy="818.24" r="14.79"/><circle class="cls-3" cx="301.98" cy="19.11" r="14.79"/><circle class="cls-3" cx="255.08" cy="213.1" r="14.79"/><circle class="cls-3" cx="149.77" cy="213.1" r="14.79"/><circle class="cls-3" cx="45.1" cy="213.1" r="14.79"/><circle class="cls-3" cx="437.31" cy="79.65" r="14.79"/><circle class="cls-3" cx="541.98" cy="79.65" r="14.79"/><circle class="cls-3" cx="647.3" cy="79.65" r="14.79"/><circle class="cls-3" cx="597.41" cy="19.11" r="14.79"/><circle class="cls-3" cx="491.67" cy="19.11" r="14.79"/><circle class="cls-3" cx="491.67" cy="152.56" r="14.79"/><circle class="cls-3" cx="597.41" cy="152.56" r="14.79"/><circle class="cls-3" cx="694.2" cy="152.56" r="14.79"/><circle class="cls-3" cx="744.59" cy="79.65" r="14.79"/><circle class="cls-3" cx="744.59" cy="213.1" r="14.79"/><circle class="cls-3" cx="744.59" cy="330.29" r="14.79"/><circle class="cls-3" cx="647.3" cy="330.29" r="14.79"/><circle class="cls-3" cx="541.98" cy="330.29" r="14.79"/><circle class="cls-3" cx="437.31" cy="330.29" r="14.79"/><circle class="cls-3" cx="491.67" cy="270.18" r="14.79"/><circle class="cls-3" cx="597.41" cy="270.18" r="14.79"/><circle class="cls-3" cx="694.2" cy="270.18" r="14.79"/><circle class="cls-3" cx="694.2" cy="400.12" r="14.79"/><circle class="cls-3" cx="597.41" cy="400.12" r="14.79"/><circle class="cls-3" cx="491.67" cy="400.12" r="14.79"/><circle class="cls-3" cx="491.67" cy="517.95" r="14.79"/><circle class="cls-3" cx="597.41" cy="517.95" r="14.79"/><circle class="cls-3" cx="694.2" cy="517.95" r="14.79"/><circle class="cls-3" cx="744.59" cy="460.31" r="14.79"/><circle class="cls-3" cx="647.3" cy="460.31" r="14.79"/><circle class="cls-3" cx="541.98" cy="460.31" r="14.79"/><circle class="cls-3" cx="437.31" cy="460.31" r="14.79"/><circle class="cls-3" cx="437.31" cy="577.49" r="14.79"/><circle class="cls-3" cx="541.98" cy="577.49" r="14.79"/><circle class="cls-3" cx="647.3" cy="577.49" r="14.79"/><circle class="cls-3" cx="744.59" cy="577.49" r="14.79"/><circle class="cls-3" cx="744.59" cy="701.36" r="14.79"/><circle class="cls-3" cx="647.3" cy="701.36" r="14.79"/><circle class="cls-3" cx="541.98" cy="701.36" r="14.79"/><circle class="cls-3" cx="437.31" cy="701.36" r="14.79"/><circle class="cls-3" cx="491.67" cy="641.25" r="14.79"/><circle class="cls-3" cx="597.41" cy="641.25" r="14.79"/><circle class="cls-3" cx="694.2" cy="641.25" r="14.79"/><circle class="cls-3" cx="694.2" cy="758.44" r="14.79"/><circle class="cls-3" cx="597.41" cy="758.44" r="14.79"/><circle class="cls-3" cx="491.67" cy="758.44" r="14.79"/><circle class="cls-3" cx="437.31" cy="818.24" r="14.79"/><circle class="cls-3" cx="541.98" cy="818.24" r="14.79"/><circle class="cls-3" cx="647.3" cy="818.24" r="14.79"/><circle class="cls-3" cx="744.59" cy="818.24" r="14.79"/><circle class="cls-3" cx="694.2" cy="19.11" r="14.79"/><circle class="cls-3" cx="647.3" cy="213.1" r="14.79"/><circle class="cls-3" cx="541.98" cy="213.1" r="14.79"/><circle class="cls-3" cx="437.31" cy="213.1" r="14.79"/><circle class="cls-2" cx="835.46" cy="80.8" r="14.79"/><circle class="cls-2" cx="940.13" cy="80.8" r="14.79"/><circle class="cls-2" cx="1045.44" cy="80.8" r="14.79"/><circle class="cls-2" cx="995.56" cy="20.26" r="14.79"/><circle class="cls-2" cx="889.82" cy="20.26" r="14.79"/><circle class="cls-2" cx="889.82" cy="153.71" r="14.79"/><circle class="cls-2" cx="995.56" cy="153.71" r="14.79"/><circle class="cls-2" cx="1092.34" cy="153.71" r="14.79"/><circle class="cls-2" cx="1142.74" cy="80.8" r="14.79"/><circle class="cls-2" cx="1142.74" cy="214.25" r="14.79"/><circle class="cls-2" cx="1142.74" cy="331.44" r="14.79"/><circle class="cls-2" cx="1045.44" cy="331.44" r="14.79"/><circle class="cls-2" cx="940.13" cy="331.44" r="14.79"/><circle class="cls-2" cx="835.46" cy="331.44" r="14.79"/><circle class="cls-2" cx="889.82" cy="271.33" r="14.79"/><circle class="cls-2" cx="995.56" cy="271.33" r="14.79"/><circle class="cls-2" cx="1092.34" cy="271.33" r="14.79"/><circle class="cls-2" cx="1092.34" cy="401.27" r="14.79"/><circle class="cls-2" cx="995.56" cy="401.27" r="14.79"/><circle class="cls-2" cx="889.82" cy="401.27" r="14.79"/><circle class="cls-2" cx="889.82" cy="519.1" r="14.79"/><circle class="cls-2" cx="995.56" cy="519.1" r="14.79"/><circle class="cls-2" cx="1092.34" cy="519.1" r="14.79"/><circle class="cls-2" cx="1142.74" cy="461.45" r="14.79"/><circle class="cls-2" cx="1045.44" cy="461.45" r="14.79"/><circle class="cls-2" cx="940.13" cy="461.45" r="14.79"/><circle class="cls-2" cx="835.46" cy="461.45" r="14.79"/><circle class="cls-2" cx="835.46" cy="578.64" r="14.79"/><circle class="cls-2" cx="940.13" cy="578.64" r="14.79"/><circle class="cls-2" cx="1045.44" cy="578.64" r="14.79"/><circle class="cls-2" cx="1142.74" cy="578.64" r="14.79"/><circle class="cls-2" cx="1142.74" cy="702.51" r="14.79"/><circle class="cls-2" cx="1045.44" cy="702.51" r="14.79"/><circle class="cls-2" cx="940.13" cy="702.51" r="14.79"/><circle class="cls-2" cx="835.46" cy="702.51" r="14.79"/><circle class="cls-2" cx="889.82" cy="642.4" r="14.79"/><circle class="cls-2" cx="995.56" cy="642.4" r="14.79"/><circle class="cls-2" cx="1092.34" cy="642.4" r="14.79"/><circle class="cls-2" cx="1092.34" cy="759.59" r="14.79"/><circle class="cls-2" cx="995.56" cy="759.59" r="14.79"/><circle class="cls-2" cx="889.82" cy="759.59" r="14.79"/><circle class="cls-2" cx="835.46" cy="819.38" r="14.79"/><circle class="cls-2" cx="940.13" cy="819.38" r="14.79"/><circle class="cls-2" cx="1045.44" cy="819.38" r="14.79"/><circle class="cls-2" cx="1142.74" cy="819.38" r="14.79"/><circle class="cls-2" cx="1092.34" cy="20.26" r="14.79"/><circle class="cls-2" cx="1045.44" cy="214.25" r="14.79"/><circle class="cls-2" cx="940.13" cy="214.25" r="14.79"/><circle class="cls-2" cx="835.46" cy="214.25" r="14.79"/></g><g id="Layer_2"><path class="cls-4" d="M972.78,279.02c-2.06-1.99-5.39-5.73-7.52-11.36-3.66-9.68-1.25-18.26-.35-20.97,5.09-15.42,20.13-20.48,21.15-20.8,2.37-.75,13.85-4.1,25.52,2.45,.97,.55,13.04,7.59,15.73,22.2,1.93,10.46-2.08,18.7-3.32,21.15-2.14,4.24-4.76,7.24-6.64,9.09"/><path class="cls-4" d="M991.13,212.95c-.28-.68-.96-2.6-.35-4.89,.15-.57,.92-3.44,3.32-4.37,2.66-1.03,5.96,.84,7.34,3.15,2.13,3.55,.24,8.98-3.5,11.36-4.03,2.57-9.31,1.04-12.06-1.75-4.47-4.53-3.41-13.55,2.1-17.65,4.46-3.33,10.8-2.65,15.03,.52,6.04,4.53,5.07,12.56,4.89,13.98-.8,6.59-5.27,10.53-6.43,11.49"/><path class="cls-4" d="M995.38,196.61c-.97-.49-5.71-3-7.31-8.52-.35-1.2-1.94-6.71,1.59-10.6,2.03-2.24,5.8-3.97,9.01-2.65,4.61,1.9,4.56,8.68,4.56,9.64-.03,3.61-1.65,6.2-2.23,7.1-1.91,2.97-4.43,4.43-5.62,5.03Z"/><path class="cls-4" d="M994.43,177.92c-1.7-.24-1.42-10.55-1.38-12.29,.11-3.94,.71-12.6,2.33-12.72,1.24-.09,2.91,4.89,3.28,9.32,.68,8.02-2.71,15.9-4.24,15.68Z"/><path class="cls-4" d="M993.05,135c-1.04,.98-2.92,3-3.92,6.15-1.84,5.78,.76,10.63,1.27,11.55,.99,1.76,2.91,5.17,5.51,5.19,3.73,.03,7.35-6.92,7.21-12.93-.08-3.33-1.4-9.31-5.51-10.49-1.76-.51-3.47,.03-4.56,.53Z"/><path class="cls-4" d="M995.17,118.15c-1.34,.08-1.94,6.04-2.01,6.78-.55,5.68,.44,12.63,1.91,12.72,1.38,.08,3.36-5.87,2.97-11.44-.27-3.84-1.71-8.12-2.86-8.05Z"/><path class="cls-4" d="M903.69,37.87c2.01-1.4,4.34-1.83,5.96-.8,2.76,1.75,2.65,7.19,.5,9.93-2.6,3.3-7.89,2.31-10.92,.27-3.81-2.57-5.28-7.63-4.72-11.8,.76-5.67,5.19-9.27,8.94-10.46,6.69-2.14,12.66,2.94,14.89,4.83,8.7,7.39,9.84,19.25,10.18,22.8,.74,7.72-1.01,10.62-2.23,19.58-.92,6.74-3.4,24.86,3.97,41.85,2.26,5.21,7.3,16.83,19.36,22.54,11.32,5.36,21.87,2.2,24.57,1.34,4.03-1.28,11.72-3.71,16.88-11.8,1.37-2.15,6.64-10.41,3.97-20.12-2.67-9.73-11.82-15.52-19.86-15.56-1.82,0-10.59,.24-13.4,6.71-1.27,2.92-1.45,7.4,.99,10.19,2.8,3.21,8.46,3.51,12.91-.27"/><path class="cls-4" d="M1094.17,37.87c-2.18-1.4-4.69-1.83-6.44-.8-2.99,1.75-2.87,7.19-.54,9.93,2.81,3.3,8.52,2.31,11.8,.27,4.12-2.57,5.71-7.63,5.1-11.8-.82-5.67-5.61-9.27-9.66-10.46-7.23-2.14-13.69,2.94-16.1,4.83-9.4,7.39-10.63,19.25-11,22.8-.8,7.72,1.09,10.62,2.41,19.58,1,6.74,3.67,24.86-4.29,41.85-2.44,5.21-7.89,16.83-20.93,22.54-12.24,5.36-23.64,2.2-26.56,1.34-4.36-1.28-12.67-3.71-18.24-11.8-1.48-2.15-7.17-10.41-4.29-20.12,2.89-9.73,12.78-15.52,21.46-15.56,1.96,0,11.44,.24,14.49,6.71,1.37,2.92,1.57,7.4-1.07,10.19-3.03,3.21-9.14,3.51-13.95-.27"/><path class="cls-4" d="M825.5,392.05c.04,4.17-1.8,7.29-3.78,7.61-2.51,.41-5.19-3.66-5.33-7.06-.23-5.74,6.75-11.48,11.17-10.03,4.62,1.52,5.42,10.59,4.47,16.16-.79,4.63-3.75,12.37-8.93,13-5.68,.69-10.95-7.55-12.37-14.11-1.22-5.64,.3-10.59,2.23-16.9,2.12-6.9,3.66-7.58,5.5-14.86,1.34-5.33,2.71-11.01,0-14.11-1.22-1.4-3.28-2.29-4.98-1.67-2.98,1.08-4.1,6.47-2.75,7.8,1.06,1.04,3.69-.35,6.18-1.67,5.23-2.77,6-5.32,9.96-6.13,1.31-.27,3.17-.64,4.81,.37,3.68,2.27,4.97,10.68,1.03,15.04-1.96,2.17-5.19,3.3-8.07,2.41-4.35-1.34-5.93-6.68-6.53-8.73-2.15-7.3,.23-13.66,1.72-19.13,.19-.7,2.73-10.33,2.65-29.82-.09-21.15-2.21-35.07-6.84-79.69-5.21-50.19-5.2-42.99-7.14-65.86-.56-6.66-2.03-18.62-1.02-34.83,.64-10.29,1.47-21.51,8.39-31.73,4.34-6.41,10.02-10.87,9.32-11.87-.48-.69-3.8,.54-5.77,3.12-3.88,5.07-.37,12.52-.22,12.83,1.39,2.85,4.21,6.08,5.77,5.39,1.39-.62,1.84-4.42,.78-7.31-1.82-4.95-6.91-4.09-11.87-8.51-5.66-5.05-8.44-14.59-6.32-22.18,.24-.87,3.07-10.52,9.65-10.79,4.24-.17,8.34,3.61,9.54,8.27,1.36,5.3-1.08,11.6-4.55,12.59-5.07,1.45-10.88-8.88-11.53-10.07-7.32-13.28-2.75-28.76-1.22-33.92,1.8-6.09,3.45-11.4,8.43-14.62,.44-.29,7.52-4.71,14.31-1.08,8.15,4.37,7.99,16.15,7.87,18.58-.15,3.17-.44,9.52-5.1,12.59-3.48,2.29-8.09,1.9-11.31-.36-5.38-3.78-6.64-12.6-3.33-17.38,.35-.51,2.33-3.36,4.99-3.24,2.94,.13,5.18,4.96,9.54,14.62,2.26,5.01,3.13,7.7,2.88,11.03-.2,2.77-1.22,6.43-2.44,6.47-1.13,.04-2.48-3-2.44-5.75,.06-4.42,3.71-9.26,7.54-9.11,2.04,.08,4.72,1.6,4.88,3.84,.1,1.42-.82,3.1-2,3.36-1.8,.39-3.89-2.65-4.55-4.56-2.44-7.1,8.56-17.69,9.76-18.82,16.65-15.73,42.04-13.64,58.3-12.08,4.51,.43,11.36,1.8,25.07,4.54,31.45,6.29,42.32,10.59,62.1,9.44"/><path class="cls-4" d="M825.5,449.87c.04-4.17-1.8-7.29-3.78-7.61-2.51-.41-5.19,3.66-5.33,7.06-.23,5.74,6.75,11.48,11.17,10.03,4.62-1.52,5.42-10.59,4.47-16.16-.79-4.63-3.75-12.37-8.93-13-5.68-.69-10.95,7.55-12.37,14.11-1.22,5.64,.3,10.59,2.23,16.9,2.12,6.9,3.66,7.58,5.5,14.86,1.34,5.33,2.71,11.01,0,14.11-1.22,1.4-3.28,2.29-4.98,1.67-2.98-1.08-4.1-6.47-2.75-7.8,1.06-1.04,3.69,.35,6.18,1.67,5.23,2.77,6,5.32,9.96,6.13,1.31,.27,3.17,.64,4.81-.37,3.68-2.27,4.97-10.68,1.03-15.04-1.96-2.17-5.19-3.3-8.07-2.41-4.35,1.34-5.93,6.68-6.53,8.73-2.15,7.3,.23,13.66,1.72,19.13,.19,.7,2.73,10.33,2.65,29.82-.09,21.15-2.21,35.07-6.84,79.69-5.21,50.19-5.2,42.99-7.14,65.86-.56,6.66-2.03,18.62-1.02,34.83,.64,10.29,1.47,21.51,8.39,31.73,4.34,6.41,10.02,10.87,9.32,11.87-.48,.69-3.8-.54-5.77-3.12-3.88-5.07-.37-12.52-.22-12.83,1.39-2.85,4.21-6.08,5.77-5.39,1.39,.62,1.84,4.42,.78,7.31-1.82,4.95-6.91,4.09-11.87,8.51-5.66,5.05-8.44,14.59-6.32,22.18,.24,.87,3.07,10.52,9.65,10.79,4.24,.17,8.34-3.61,9.54-8.27,1.36-5.3-1.08-11.6-4.55-12.59-5.07-1.45-10.88,8.88-11.53,10.07-7.32,13.28-2.75,28.76-1.22,33.92,1.8,6.09,3.45,11.4,8.43,14.62,.44,.29,7.52,4.71,14.31,1.08,8.15-4.37,7.99-16.15,7.87-18.58-.15-3.17-.44-9.52-5.1-12.59-3.48-2.29-8.09-1.9-11.31,.36-5.38,3.78-6.64,12.6-3.33,17.38,.35,.51,2.33,3.36,4.99,3.24,2.94-.13,5.18-4.96,9.54-14.62,2.26-5.01,3.13-7.7,2.88-11.03-.2-2.77-1.22-6.43-2.44-6.47-1.13-.04-2.48,3-2.44,5.75,.06,4.42,3.71,9.26,7.54,9.11,2.04-.08,4.72-1.6,4.88-3.84,.1-1.42-.82-3.1-2-3.36-1.8-.39-3.89,2.65-4.55,4.56-2.44,7.1,8.56,17.69,9.76,18.82,16.65,15.73,42.04,13.64,58.3,12.08,4.51-.43,11.36-1.8,25.07-4.54,31.45-6.29,42.32-10.59,62.1-9.44"/><path class="cls-4" d="M815.5,418.22c-.89,.67-1.44,1.87-1.29,3.1,.19,1.58,1.48,2.61,2.68,2.84,1.59,.3,3.49-.71,3.83-2.48,.28-1.51-.7-2.93-1.77-3.57-.1-.06-1.89-1.08-3.44,.1Z"/><path class="cls-4" d="M1159.77,392.02c-.04,4.17,1.8,7.29,3.78,7.61,2.51,.41,5.19-3.66,5.33-7.06,.23-5.74-6.75-11.48-11.17-10.03-4.62,1.52-5.42,10.59-4.47,16.16,.79,4.63,3.75,12.37,8.93,13,5.68,.69,10.95-7.55,12.37-14.11,1.22-5.64-.3-10.59-2.23-16.9-2.12-6.9-3.66-7.58-5.5-14.86-1.34-5.33-2.71-11.01,0-14.11,1.22-1.4,3.28-2.29,4.98-1.67,2.98,1.08,4.1,6.47,2.75,7.8-1.06,1.04-3.69-.35-6.18-1.67-5.23-2.77-6-5.32-9.96-6.13-1.31-.27-3.17-.64-4.81,.37-3.68,2.27-4.97,10.68-1.03,15.04,1.96,2.17,5.19,3.3,8.07,2.41,4.35-1.34,5.93-6.68,6.53-8.73,2.15-7.3-.23-13.66-1.72-19.13-.19-.7-2.73-10.33-2.65-29.82,.09-21.15,2.21-35.07,6.84-79.69,5.21-50.19,5.2-42.99,7.14-65.86,.56-6.66,2.03-18.62,1.02-34.83-.64-10.29-1.47-21.51-8.39-31.73-4.34-6.41-10.02-10.87-9.32-11.87,.48-.69,3.8,.54,5.77,3.12,3.88,5.07,.37,12.52,.22,12.83-1.39,2.85-4.21,6.08-5.77,5.39-1.39-.62-1.84-4.42-.78-7.31,1.82-4.95,6.91-4.09,11.87-8.51,5.66-5.05,8.44-14.59,6.32-22.18-.24-.87-3.07-10.52-9.65-10.79-4.24-.17-8.34,3.61-9.54,8.27-1.36,5.3,1.08,11.6,4.55,12.59,5.07,1.45,10.88-8.88,11.53-10.07,7.32-13.28,2.75-28.76,1.22-33.92-1.8-6.09-3.45-11.4-8.43-14.62-.44-.29-7.52-4.71-14.31-1.08-8.15,4.37-7.99,16.15-7.87,18.58,.15,3.17,.44,9.52,5.1,12.59,3.48,2.29,8.09,1.9,11.31-.36,5.38-3.78,6.64-12.6,3.33-17.38-.35-.51-2.33-3.36-4.99-3.24-2.94,.13-5.18,4.96-9.54,14.62-2.26,5.01-3.13,7.7-2.88,11.03,.2,2.77,1.22,6.43,2.44,6.47,1.13,.04,2.48-3,2.44-5.75-.06-4.42-3.71-9.26-7.54-9.11-2.04,.08-4.72,1.6-4.88,3.84-.1,1.42,.82,3.1,2,3.36,1.8,.39,3.89-2.65,4.55-4.56,2.44-7.1-8.56-17.69-9.76-18.82-16.65-15.73-42.04-13.64-58.3-12.08-4.51,.43-11.36,1.8-25.07,4.54-31.45,6.29-42.32,10.59-62.1,9.44"/><path class="cls-4" d="M1159.77,449.84c-.04-4.17,1.8-7.29,3.78-7.61,2.51-.41,5.19,3.66,5.33,7.06,.23,5.74-6.75,11.48-11.17,10.03-4.62-1.52-5.42-10.59-4.47-16.16,.79-4.63,3.75-12.37,8.93-13,5.68-.69,10.95,7.55,12.37,14.11,1.22,5.64-.3,10.59-2.23,16.9-2.12,6.9-3.66,7.58-5.5,14.86-1.34,5.33-2.71,11.01,0,14.11,1.22,1.4,3.28,2.29,4.98,1.67,2.98-1.08,4.1-6.47,2.75-7.8-1.06-1.04-3.69,.35-6.18,1.67-5.23,2.77-6,5.32-9.96,6.13-1.31,.27-3.17,.64-4.81-.37-3.68-2.27-4.97-10.68-1.03-15.04,1.96-2.17,5.19-3.3,8.07-2.41,4.35,1.34,5.93,6.68,6.53,8.73,2.15,7.3-.23,13.66-1.72,19.13-.19,.7-2.73,10.33-2.65,29.82,.09,21.15,2.21,35.07,6.84,79.69,5.21,50.19,5.2,42.99,7.14,65.86,.56,6.66,2.03,18.62,1.02,34.83-.64,10.29-1.47,21.51-8.39,31.73-4.34,6.41-10.02,10.87-9.32,11.87,.48,.69,3.8-.54,5.77-3.12,3.88-5.07,.37-12.52,.22-12.83-1.39-2.85-4.21-6.08-5.77-5.39-1.39,.62-1.84,4.42-.78,7.31,1.82,4.95,6.91,4.09,11.87,8.51,5.66,5.05,8.44,14.59,6.32,22.18-.24,.87-3.07,10.52-9.65,10.79-4.24,.17-8.34-3.61-9.54-8.27-1.36-5.3,1.08-11.6,4.55-12.59,5.07-1.45,10.88,8.88,11.53,10.07,7.32,13.28,2.75,28.76,1.22,33.92-1.8,6.09-3.45,11.4-8.43,14.62-.44,.29-7.52,4.71-14.31,1.08-8.15-4.37-7.99-16.15-7.87-18.58,.15-3.17,.44-9.52,5.1-12.59,3.48-2.29,8.09-1.9,11.31,.36,5.38,3.78,6.64,12.6,3.33,17.38-.35,.51-2.33,3.36-4.99,3.24-2.94-.13-5.18-4.96-9.54-14.62-2.26-5.01-3.13-7.7-2.88-11.03,.2-2.77,1.22-6.43,2.44-6.47,1.13-.04,2.48,3,2.44,5.75-.06,4.42-3.71,9.26-7.54,9.11-2.04-.08-4.72-1.6-4.88-3.84-.1-1.42,.82-3.1,2-3.36,1.8-.39,3.89,2.65,4.55,4.56,2.44,7.1-8.56,17.69-9.76,18.82-16.65,15.73-42.04,13.64-58.3,12.08-4.51-.43-11.36-1.8-25.07-4.54-31.45-6.29-42.32-10.59-62.1-9.44"/><path class="cls-4" d="M1169.77,418.19c.89,.67,1.44,1.87,1.29,3.1-.19,1.58-1.48,2.61-2.68,2.84-1.59,.3-3.49-.71-3.83-2.48-.28-1.51,.7-2.93,1.77-3.57,.1-.06,1.89-1.08,3.44,.1Z"/><circle class="cls-2" cx="991.45" cy="375.46" r="104.13"/><image width="702" height="146" transform="translate(909 356.43) scale(.24)" xlink:href="UI &amp; UX Design/others/HotelCapri/menu Capri/logo black.png"/><circle class="cls-4" cx="991.45" cy="375.46" r="95.86"/></g></svg>