<?xml version="1.0" encoding="UTF-8"?><svg xmlns="http://www.w3.org/2000/svg" viewBox="0 0 1190.55 841.89"><defs><style>.cls-1{fill:#fff0e1;}.cls-2{fill:#ffcd02;opacity:.26;}</style></defs><g id="Layer_3"><rect class="cls-1" width="1190.55" height="841.89"/></g><g id="Layer_2"><circle class="cls-2" cx="45.1" cy="79.65" r="14.79"/><circle class="cls-2" cx="149.77" cy="79.65" r="14.79"/><circle class="cls-2" cx="255.08" cy="79.65" r="14.79"/><circle class="cls-2" cx="205.2" cy="19.11" r="14.79"/><circle class="cls-2" cx="99.46" cy="19.11" r="14.79"/><circle class="cls-2" cx="99.46" cy="152.56" r="14.79"/><circle class="cls-2" cx="205.2" cy="152.56" r="14.79"/><circle class="cls-2" cx="301.98" cy="152.56" r="14.79"/><circle class="cls-2" cx="352.38" cy="79.65" r="14.79"/><circle class="cls-2" cx="352.38" cy="213.1" r="14.79"/><circle class="cls-2" cx="352.38" cy="330.29" r="14.79"/><circle class="cls-2" cx="255.08" cy="330.29" r="14.79"/><circle class="cls-2" cx="149.77" cy="330.29" r="14.79"/><circle class="cls-2" cx="45.1" cy="330.29" r="14.79"/><circle class="cls-2" cx="99.46" cy="270.18" r="14.79"/><circle class="cls-2" cx="205.2" cy="270.18" r="14.79"/><circle class="cls-2" cx="301.98" cy="270.18" r="14.79"/><circle class="cls-2" cx="301.98" cy="400.12" r="14.79"/><circle class="cls-2" cx="205.2" cy="400.12" r="14.79"/><circle class="cls-2" cx="99.46" cy="400.12" r="14.79"/><circle class="cls-2" cx="99.46" cy="517.95" r="14.79"/><circle class="cls-2" cx="205.2" cy="517.95" r="14.79"/><circle class="cls-2" cx="301.98" cy="517.95" r="14.79"/><circle class="cls-2" cx="352.38" cy="460.31" r="14.79"/><circle class="cls-2" cx="255.08" cy="460.31" r="14.79"/><circle class="cls-2" cx="149.77" cy="460.31" r="14.79"/><circle class="cls-2" cx="45.1" cy="460.31" r="14.79"/><circle class="cls-2" cx="45.1" cy="577.49" r="14.79"/><circle class="cls-2" cx="149.77" cy="577.49" r="14.79"/><circle class="cls-2" cx="255.08" cy="577.49" r="14.79"/><circle class="cls-2" cx="352.38" cy="577.49" r="14.79"/><circle class="cls-2" cx="352.38" cy="701.36" r="14.79"/><circle class="cls-2" cx="255.08" cy="701.36" r="14.79"/><circle class="cls-2" cx="149.77" cy="701.36" r="14.79"/><circle class="cls-2" cx="45.1" cy="701.36" r="14.79"/><circle class="cls-2" cx="99.46" cy="641.25" r="14.79"/><circle class="cls-2" cx="205.2" cy="641.25" r="14.79"/><circle class="cls-2" cx="301.98" cy="641.25" r="14.79"/><circle class="cls-2" cx="301.98" cy="758.44" r="14.79"/><circle class="cls-2" cx="205.2" cy="758.44" r="14.79"/><circle class="cls-2" cx="99.46" cy="758.44" r="14.79"/><circle class="cls-2" cx="45.1" cy="818.24" r="14.79"/><circle class="cls-2" cx="149.77" cy="818.24" r="14.79"/><circle class="cls-2" cx="255.08" cy="818.24" r="14.79"/><circle class="cls-2" cx="352.38" cy="818.24" r="14.79"/><circle class="cls-2" cx="301.98" cy="19.11" r="14.79"/><circle class="cls-2" cx="255.08" cy="213.1" r="14.79"/><circle class="cls-2" cx="149.77" cy="213.1" r="14.79"/><circle class="cls-2" cx="45.1" cy="213.1" r="14.79"/><circle class="cls-2" cx="437.31" cy="79.65" r="14.79"/><circle class="cls-2" cx="541.98" cy="79.65" r="14.79"/><circle class="cls-2" cx="647.3" cy="79.65" r="14.79"/><circle class="cls-2" cx="597.41" cy="19.11" r="14.79"/><circle class="cls-2" cx="491.67" cy="19.11" r="14.79"/><circle class="cls-2" cx="491.67" cy="152.56" r="14.79"/><circle class="cls-2" cx="597.41" cy="152.56" r="14.79"/><circle class="cls-2" cx="694.2" cy="152.56" r="14.79"/><circle class="cls-2" cx="744.59" cy="79.65" r="14.79"/><circle class="cls-2" cx="744.59" cy="213.1" r="14.79"/><circle class="cls-2" cx="744.59" cy="330.29" r="14.79"/><circle class="cls-2" cx="647.3" cy="330.29" r="14.79"/><circle class="cls-2" cx="541.98" cy="330.29" r="14.79"/><circle class="cls-2" cx="437.31" cy="330.29" r="14.79"/><circle class="cls-2" cx="491.67" cy="270.18" r="14.79"/><circle class="cls-2" cx="597.41" cy="270.18" r="14.79"/><circle class="cls-2" cx="694.2" cy="270.18" r="14.79"/><circle class="cls-2" cx="694.2" cy="400.12" r="14.79"/><circle class="cls-2" cx="597.41" cy="400.12" r="14.79"/><circle class="cls-2" cx="491.67" cy="400.12" r="14.79"/><circle class="cls-2" cx="491.67" cy="517.95" r="14.79"/><circle class="cls-2" cx="597.41" cy="517.95" r="14.79"/><circle class="cls-2" cx="694.2" cy="517.95" r="14.79"/><circle class="cls-2" cx="744.59" cy="460.31" r="14.79"/><circle class="cls-2" cx="647.3" cy="460.31" r="14.79"/><circle class="cls-2" cx="541.98" cy="460.31" r="14.79"/><circle class="cls-2" cx="437.31" cy="460.31" r="14.79"/><circle class="cls-2" cx="437.31" cy="577.49" r="14.79"/><circle class="cls-2" cx="541.98" cy="577.49" r="14.79"/><circle class="cls-2" cx="647.3" cy="577.49" r="14.79"/><circle class="cls-2" cx="744.59" cy="577.49" r="14.79"/><circle class="cls-2" cx="744.59" cy="701.36" r="14.79"/><circle class="cls-2" cx="647.3" cy="701.36" r="14.79"/><circle class="cls-2" cx="541.98" cy="701.36" r="14.79"/><circle class="cls-2" cx="437.31" cy="701.36" r="14.79"/><circle class="cls-2" cx="491.67" cy="641.25" r="14.79"/><circle class="cls-2" cx="597.41" cy="641.25" r="14.79"/><circle class="cls-2" cx="694.2" cy="641.25" r="14.79"/><circle class="cls-2" cx="694.2" cy="758.44" r="14.79"/><circle class="cls-2" cx="597.41" cy="758.44" r="14.79"/><circle class="cls-2" cx="491.67" cy="758.44" r="14.79"/><circle class="cls-2" cx="437.31" cy="818.24" r="14.79"/><circle class="cls-2" cx="541.98" cy="818.24" r="14.79"/><circle class="cls-2" cx="647.3" cy="818.24" r="14.79"/><circle class="cls-2" cx="744.59" cy="818.24" r="14.79"/><circle class="cls-2" cx="694.2" cy="19.11" r="14.79"/><circle class="cls-2" cx="647.3" cy="213.1" r="14.79"/><circle class="cls-2" cx="541.98" cy="213.1" r="14.79"/><circle class="cls-2" cx="437.31" cy="213.1" r="14.79"/><circle class="cls-2" cx="835.46" cy="80.8" r="14.79"/><circle class="cls-2" cx="940.13" cy="80.8" r="14.79"/><circle class="cls-2" cx="1045.44" cy="80.8" r="14.79"/><circle class="cls-2" cx="995.56" cy="20.26" r="14.79"/><circle class="cls-2" cx="889.82" cy="20.26" r="14.79"/><circle class="cls-2" cx="889.82" cy="153.71" r="14.79"/><circle class="cls-2" cx="995.56" cy="153.71" r="14.79"/><circle class="cls-2" cx="1092.34" cy="153.71" r="14.79"/><circle class="cls-2" cx="1142.74" cy="80.8" r="14.79"/><circle class="cls-2" cx="1142.74" cy="214.25" r="14.79"/><circle class="cls-2" cx="1142.74" cy="331.44" r="14.79"/><circle class="cls-2" cx="1045.44" cy="331.44" r="14.79"/><circle class="cls-2" cx="940.13" cy="331.44" r="14.79"/><circle class="cls-2" cx="835.46" cy="331.44" r="14.79"/><circle class="cls-2" cx="889.82" cy="271.33" r="14.79"/><circle class="cls-2" cx="995.56" cy="271.33" r="14.79"/><circle class="cls-2" cx="1092.34" cy="271.33" r="14.79"/><circle class="cls-2" cx="1092.34" cy="401.27" r="14.79"/><circle class="cls-2" cx="995.56" cy="401.27" r="14.79"/><circle class="cls-2" cx="889.82" cy="401.27" r="14.79"/><circle class="cls-2" cx="889.82" cy="519.1" r="14.79"/><circle class="cls-2" cx="995.56" cy="519.1" r="14.79"/><circle class="cls-2" cx="1092.34" cy="519.1" r="14.79"/><circle class="cls-2" cx="1142.74" cy="461.45" r="14.79"/><circle class="cls-2" cx="1045.44" cy="461.45" r="14.79"/><circle class="cls-2" cx="940.13" cy="461.45" r="14.79"/><circle class="cls-2" cx="835.46" cy="461.45" r="14.79"/><circle class="cls-2" cx="835.46" cy="578.64" r="14.79"/><circle class="cls-2" cx="940.13" cy="578.64" r="14.79"/><circle class="cls-2" cx="1045.44" cy="578.64" r="14.79"/><circle class="cls-2" cx="1142.74" cy="578.64" r="14.79"/><circle class="cls-2" cx="1142.74" cy="702.51" r="14.79"/><circle class="cls-2" cx="1045.44" cy="702.51" r="14.79"/><circle class="cls-2" cx="940.13" cy="702.51" r="14.79"/><circle class="cls-2" cx="835.46" cy="702.51" r="14.79"/><circle class="cls-2" cx="889.82" cy="642.4" r="14.79"/><circle class="cls-2" cx="995.56" cy="642.4" r="14.79"/><circle class="cls-2" cx="1092.34" cy="642.4" r="14.79"/><circle class="cls-2" cx="1092.34" cy="759.59" r="14.79"/><circle class="cls-2" cx="995.56" cy="759.59" r="14.79"/><circle class="cls-2" cx="889.82" cy="759.59" r="14.79"/><circle class="cls-2" cx="835.46" cy="819.38" r="14.79"/><circle class="cls-2" cx="940.13" cy="819.38" r="14.79"/><circle class="cls-2" cx="1045.44" cy="819.38" r="14.79"/><circle class="cls-2" cx="1142.74" cy="819.38" r="14.79"/><circle class="cls-2" cx="1092.34" cy="20.26" r="14.79"/><circle class="cls-2" cx="1045.44" cy="214.25" r="14.79"/><circle class="cls-2" cx="940.13" cy="214.25" r="14.79"/><circle class="cls-2" cx="835.46" cy="214.25" r="14.79"/></g></svg>